<?xml version="1.0" encoding="utf-8"?>
<!-- Generator: Adobe Illustrator 19.2.1, SVG Export Plug-In . SVG Version: 6.00 Build 0)  -->
<svg version="1.1" id="Layer_1" xmlns="http://www.w3.org/2000/svg" xmlns:xlink="http://www.w3.org/1999/xlink" x="0px" y="0px"
	 viewBox="0 0 96 72" style="enable-background:new 0 0 96 72;" xml:space="preserve">
<style type="text/css">
	.st0{clip-path:url(#SVGID_2_);}
	.st1{clip-path:url(#SVGID_4_);fill:#34BFE1;}
	.st2{clip-path:url(#SVGID_4_);fill:#35BEE0;}
	.st3{clip-path:url(#SVGID_4_);fill:#36BDE0;}
	.st4{clip-path:url(#SVGID_4_);fill:#36BCDF;}
	.st5{clip-path:url(#SVGID_4_);fill:#37BBDE;}
	.st6{clip-path:url(#SVGID_4_);fill:#38BADE;}
	.st7{clip-path:url(#SVGID_4_);fill:#39B9DD;}
	.st8{clip-path:url(#SVGID_4_);fill:#3AB8DC;}
	.st9{clip-path:url(#SVGID_4_);fill:#3AB7DB;}
	.st10{clip-path:url(#SVGID_4_);fill:#3BB6DB;}
	.st11{clip-path:url(#SVGID_4_);fill:#3CB5DA;}
	.st12{clip-path:url(#SVGID_4_);fill:#3DB4D9;}
	.st13{clip-path:url(#SVGID_4_);fill:#3EB3D9;}
	.st14{clip-path:url(#SVGID_4_);fill:#3EB2D8;}
	.st15{clip-path:url(#SVGID_4_);fill:#3FB1D7;}
	.st16{clip-path:url(#SVGID_4_);fill:#40B0D7;}
	.st17{clip-path:url(#SVGID_4_);fill:#41AFD6;}
	.st18{clip-path:url(#SVGID_4_);fill:#42AED5;}
	.st19{clip-path:url(#SVGID_4_);fill:#42ADD5;}
	.st20{clip-path:url(#SVGID_4_);fill:#43ACD4;}
	.st21{clip-path:url(#SVGID_4_);fill:#44ABD3;}
	.st22{clip-path:url(#SVGID_4_);fill:#45AAD2;}
	.st23{clip-path:url(#SVGID_4_);fill:#46A9D2;}
	.st24{clip-path:url(#SVGID_4_);fill:#46A8D1;}
	.st25{clip-path:url(#SVGID_4_);fill:#47A7D0;}
	.st26{clip-path:url(#SVGID_4_);fill:#48A6D0;}
	.st27{clip-path:url(#SVGID_4_);fill:#49A5CF;}
	.st28{clip-path:url(#SVGID_4_);fill:#4AA4CE;}
	.st29{clip-path:url(#SVGID_4_);fill:#4AA3CE;}
	.st30{clip-path:url(#SVGID_4_);fill:#4BA2CD;}
	.st31{clip-path:url(#SVGID_4_);fill:#4CA1CC;}
	.st32{clip-path:url(#SVGID_4_);fill:#4DA0CC;}
	.st33{clip-path:url(#SVGID_4_);fill:#4E9FCB;}
	.st34{clip-path:url(#SVGID_4_);fill:#4E9DCA;}
	.st35{clip-path:url(#SVGID_4_);fill:#4F9CC9;}
	.st36{clip-path:url(#SVGID_4_);fill:#509BC9;}
	.st37{clip-path:url(#SVGID_4_);fill:#519AC8;}
	.st38{clip-path:url(#SVGID_4_);fill:#5299C7;}
	.st39{clip-path:url(#SVGID_4_);fill:#5298C7;}
	.st40{clip-path:url(#SVGID_4_);fill:#5397C6;}
	.st41{clip-path:url(#SVGID_4_);fill:#5496C5;}
	.st42{clip-path:url(#SVGID_4_);fill:#5595C5;}
	.st43{clip-path:url(#SVGID_4_);fill:#5694C4;}
	.st44{clip-path:url(#SVGID_4_);fill:#5693C3;}
	.st45{clip-path:url(#SVGID_4_);fill:#5792C3;}
	.st46{clip-path:url(#SVGID_4_);fill:#5891C2;}
	.st47{clip-path:url(#SVGID_4_);fill:#5990C1;}
	.st48{clip-path:url(#SVGID_4_);fill:#5A8FC0;}
	.st49{clip-path:url(#SVGID_4_);fill:#5A8EC0;}
	.st50{clip-path:url(#SVGID_4_);fill:#5B8DBF;}
	.st51{clip-path:url(#SVGID_4_);fill:#5C8CBE;}
	.st52{clip-path:url(#SVGID_4_);fill:#5D8BBE;}
	.st53{clip-path:url(#SVGID_4_);fill:#5E8ABD;}
	.st54{clip-path:url(#SVGID_4_);fill:#5E89BC;}
	.st55{clip-path:url(#SVGID_4_);fill:#5F88BC;}
	.st56{clip-path:url(#SVGID_4_);fill:#6087BB;}
	.st57{clip-path:url(#SVGID_4_);fill:#6186BA;}
	.st58{clip-path:url(#SVGID_4_);fill:#6285BA;}
	.st59{clip-path:url(#SVGID_4_);fill:#6284B9;}
	.st60{clip-path:url(#SVGID_4_);fill:#6383B8;}
	.st61{clip-path:url(#SVGID_4_);fill:#6482B7;}
	.st62{clip-path:url(#SVGID_4_);fill:#6581B7;}
	.st63{clip-path:url(#SVGID_4_);fill:#6680B6;}
	.st64{clip-path:url(#SVGID_4_);fill:#667FB5;}
	.st65{clip-path:url(#SVGID_4_);fill:#677EB5;}
	.st66{clip-path:url(#SVGID_4_);fill:#687DB4;}
	.st67{clip-path:url(#SVGID_6_);fill:#A04198;}
	.st68{clip-path:url(#SVGID_6_);fill:#9F4298;}
	.st69{clip-path:url(#SVGID_6_);fill:#9E4399;}
	.st70{clip-path:url(#SVGID_6_);fill:#9D4499;}
	.st71{clip-path:url(#SVGID_6_);fill:#9D4599;}
	.st72{clip-path:url(#SVGID_6_);fill:#9C469A;}
	.st73{clip-path:url(#SVGID_6_);fill:#9B479A;}
	.st74{clip-path:url(#SVGID_6_);fill:#9A489A;}
	.st75{clip-path:url(#SVGID_6_);fill:#99499B;}
	.st76{clip-path:url(#SVGID_6_);fill:#984A9B;}
	.st77{clip-path:url(#SVGID_6_);fill:#984C9B;}
	.st78{clip-path:url(#SVGID_6_);fill:#974D9B;}
	.st79{clip-path:url(#SVGID_6_);fill:#964E9C;}
	.st80{clip-path:url(#SVGID_6_);fill:#954F9C;}
	.st81{clip-path:url(#SVGID_6_);fill:#94509C;}
	.st82{clip-path:url(#SVGID_6_);fill:#93519D;}
	.st83{clip-path:url(#SVGID_6_);fill:#93529D;}
	.st84{clip-path:url(#SVGID_6_);fill:#92539D;}
	.st85{clip-path:url(#SVGID_6_);fill:#91549E;}
	.st86{clip-path:url(#SVGID_6_);fill:#90559E;}
	.st87{clip-path:url(#SVGID_8_);fill:#E6EBED;}
	.st88{clip-path:url(#SVGID_8_);fill:#E5EAEC;}
	.st89{clip-path:url(#SVGID_8_);fill:#E4E9EC;}
	.st90{clip-path:url(#SVGID_8_);fill:#E3E8EB;}
	.st91{clip-path:url(#SVGID_8_);fill:#E2E8EB;}
	.st92{clip-path:url(#SVGID_8_);fill:#E1E7EA;}
	.st93{clip-path:url(#SVGID_8_);fill:#E0E6EA;}
	.st94{clip-path:url(#SVGID_8_);fill:#DFE5E9;}
	.st95{clip-path:url(#SVGID_8_);fill:#DEE4E9;}
	.st96{clip-path:url(#SVGID_8_);fill:#DDE3E8;}
	.st97{clip-path:url(#SVGID_8_);fill:#DCE3E8;}
	.st98{clip-path:url(#SVGID_8_);fill:#DBE2E7;}
	.st99{clip-path:url(#SVGID_8_);fill:#DAE1E7;}
	.st100{clip-path:url(#SVGID_8_);fill:#D8E0E6;}
	.st101{clip-path:url(#SVGID_8_);fill:#D7DFE6;}
	.st102{clip-path:url(#SVGID_8_);fill:#D6DEE5;}
	.st103{clip-path:url(#SVGID_8_);fill:#D5DDE5;}
	.st104{clip-path:url(#SVGID_8_);fill:#D4DDE4;}
	.st105{clip-path:url(#SVGID_8_);fill:#D3DCE4;}
	.st106{clip-path:url(#SVGID_8_);fill:#D2DBE3;}
	.st107{clip-path:url(#SVGID_8_);fill:#D1DAE3;}
	.st108{clip-path:url(#SVGID_8_);fill:#D0D9E2;}
	.st109{clip-path:url(#SVGID_8_);fill:#CFD8E2;}
	.st110{clip-path:url(#SVGID_8_);fill:#CED8E1;}
	.st111{clip-path:url(#SVGID_8_);fill:#CDD7E1;}
	.st112{clip-path:url(#SVGID_8_);fill:#CCD6E0;}
	.st113{clip-path:url(#SVGID_8_);fill:#CBD5E0;}
</style>
<g>
	<defs>
		<path id="SVGID_1_" d="M30.7,65.3c-0.2,0-0.4-0.1-0.5-0.2c-0.9-0.6-0.3-1.8-0.1-2.4c2.8-5.7,1-10.5,0.3-12H28c-7.7,0-14-6.3-14-14
			v-16c0-7.7,6.3-14,14-14h40c7.7,0,14,6.3,14,14v16c0,7.7-6.3,14-14,14H44.9C34.2,63.3,31.7,65.3,30.7,65.3z M28,8.7
			c-6.6,0-12,5.4-12,12v16c0,6.6,5.4,12,12,12h3.6l0.3,0.5c0.1,0.2,3.1,5.3,1,12c2.6-2.7,6.9-7.5,10.8-12.1l0.3-0.4h24
			c6.6,0,12-5.4,12-12v-16c0-6.6-5.4-12-12-12H28z M43.4,37.7H21.6c-0.7,0-1.3-0.4-1.7-0.9c-0.4-0.6-0.4-1.3-0.1-1.9l3-6
			c0.3-0.7,1-1.1,1.8-1.1h21.8c0.7,0,1.3,0.4,1.7,0.9c0.4,0.6,0.4,1.3,0.1,1.9l-3,6C44.8,37.3,44.1,37.7,43.4,37.7z M43.4,35.7v1
			V35.7L43.4,35.7z M46.4,29.7l-21.8,0l-3,6h21.8L46.4,29.7z M76.5,25.7H19.5c-1.1,0-2-0.9-2-2v-3c0-1.2,0.2-2.5,0.6-3.6
			c0.3-0.8,1-1.4,1.9-1.4h56c0.9,0,1.6,0.5,1.9,1.4c0.4,1.2,0.6,2.4,0.6,3.6v3C78.5,24.8,77.6,25.7,76.5,25.7z M76,17.7l-56,0
			c-0.3,1-0.5,2-0.5,3v3h56.9l0-3C76.5,19.7,76.3,18.7,76,17.7z"/>
	</defs>
	<use xlink:href="#SVGID_1_"  style="overflow:visible;"/>
	<clipPath id="SVGID_2_">
		<use xlink:href="#SVGID_1_"  style="overflow:visible;"/>
	</clipPath>
	<g class="st0">
		<g>
			<defs>
				<rect id="SVGID_3_" x="12" y="5.7" width="72" height="60"/>
			</defs>
			<clipPath id="SVGID_4_">
				<use xlink:href="#SVGID_3_"  style="overflow:visible;"/>
			</clipPath>
			<path class="st1" d="M12,65.7L12,65.7z"/>
			<path class="st1" d="M12,63.7l2,2L12,63.7z"/>
			<polygon class="st2" points="12,61.7 16,65.7 14,65.7 12,63.7 			"/>
			<polygon class="st3" points="12,59.7 18,65.7 16,65.7 12,61.7 			"/>
			<polygon class="st4" points="12,57.7 20,65.7 18,65.7 12,59.7 			"/>
			<polygon class="st5" points="12,55.7 22,65.7 20,65.7 12,57.7 			"/>
			<polygon class="st6" points="12,53.7 24,65.7 22,65.7 12,55.7 			"/>
			<polygon class="st7" points="12,51.7 26,65.7 24,65.7 12,53.7 			"/>
			<polygon class="st8" points="12,49.7 28,65.7 26,65.7 12,51.7 			"/>
			<polygon class="st9" points="12,47.7 30,65.7 28,65.7 12,49.7 			"/>
			<polygon class="st10" points="12,45.7 32,65.7 30,65.7 12,47.7 			"/>
			<polygon class="st11" points="12,43.7 34,65.7 32,65.7 12,45.7 			"/>
			<polygon class="st12" points="12,41.7 36,65.7 34,65.7 12,43.7 			"/>
			<polygon class="st13" points="12,39.7 38,65.7 36,65.7 12,41.7 			"/>
			<polygon class="st14" points="12,37.7 40,65.7 38,65.7 12,39.7 			"/>
			<polygon class="st15" points="12,35.7 42,65.7 40,65.7 12,37.7 			"/>
			<polygon class="st16" points="12,33.7 44,65.7 42,65.7 12,35.7 			"/>
			<polygon class="st17" points="12,31.7 46,65.7 44,65.7 12,33.7 			"/>
			<polygon class="st18" points="12,29.7 48,65.7 46,65.7 12,31.7 			"/>
			<polygon class="st19" points="12,27.7 50,65.7 48,65.7 12,29.7 			"/>
			<polygon class="st20" points="12,25.7 52,65.7 50,65.7 12,27.7 			"/>
			<polygon class="st21" points="12,23.7 54,65.7 52,65.7 12,25.7 			"/>
			<polygon class="st22" points="12,21.7 56,65.7 54,65.7 12,23.7 			"/>
			<polygon class="st23" points="12,19.7 58,65.7 56,65.7 12,21.7 			"/>
			<polygon class="st24" points="12,17.7 60,65.7 58,65.7 12,19.7 			"/>
			<polygon class="st25" points="12,15.7 62,65.7 60,65.7 12,17.7 			"/>
			<polygon class="st26" points="12,13.7 64,65.7 62,65.7 12,15.7 			"/>
			<polygon class="st27" points="12,11.7 66,65.7 64,65.7 12,13.7 			"/>
			<polygon class="st28" points="12,9.7 68,65.7 66,65.7 12,11.7 			"/>
			<polygon class="st29" points="12,7.7 70,65.7 68,65.7 12,9.7 			"/>
			<polygon class="st30" points="12,5.7 72,65.7 70,65.7 12,7.7 			"/>
			<polygon class="st31" points="14,5.7 74,65.7 72,65.7 12,5.7 12,5.7 			"/>
			<polygon class="st32" points="16,5.7 76,65.7 74,65.7 14,5.7 			"/>
			<polygon class="st33" points="18,5.7 78,65.7 76,65.7 16,5.7 			"/>
			<polygon class="st34" points="20,5.7 80,65.7 78,65.7 18,5.7 			"/>
			<polygon class="st35" points="22,5.7 82,65.7 80,65.7 20,5.7 			"/>
			<polygon class="st36" points="24,5.7 84,65.7 84,65.7 82,65.7 22,5.7 			"/>
			<polygon class="st37" points="26,5.7 84,63.7 84,65.7 24,5.7 			"/>
			<polygon class="st38" points="28,5.7 84,61.7 84,63.7 26,5.7 			"/>
			<polygon class="st39" points="30,5.7 84,59.7 84,61.7 28,5.7 			"/>
			<polygon class="st40" points="32,5.7 84,57.7 84,59.7 30,5.7 			"/>
			<polygon class="st41" points="34,5.7 84,55.7 84,57.7 32,5.7 			"/>
			<polygon class="st42" points="36,5.7 84,53.7 84,55.7 34,5.7 			"/>
			<polygon class="st43" points="38,5.7 84,51.7 84,53.7 36,5.7 			"/>
			<polygon class="st44" points="40,5.7 84,49.7 84,51.7 38,5.7 			"/>
			<polygon class="st45" points="42,5.7 84,47.7 84,49.7 40,5.7 			"/>
			<polygon class="st46" points="44,5.7 84,45.7 84,47.7 42,5.7 			"/>
			<polygon class="st47" points="46,5.7 84,43.7 84,45.7 44,5.7 			"/>
			<polygon class="st48" points="48,5.7 84,41.7 84,43.7 46,5.7 			"/>
			<polygon class="st49" points="50,5.7 84,39.7 84,41.7 48,5.7 			"/>
			<polygon class="st50" points="52,5.7 84,37.7 84,39.7 50,5.7 			"/>
			<polygon class="st51" points="54,5.7 84,35.7 84,37.7 52,5.7 			"/>
			<polygon class="st52" points="56,5.7 84,33.7 84,35.7 54,5.7 			"/>
			<polygon class="st53" points="58,5.7 84,31.7 84,33.7 56,5.7 			"/>
			<polygon class="st54" points="60,5.7 84,29.7 84,31.7 58,5.7 			"/>
			<polygon class="st55" points="62,5.7 84,27.7 84,29.7 60,5.7 			"/>
			<polygon class="st56" points="64,5.7 84,25.7 84,27.7 62,5.7 			"/>
			<polygon class="st57" points="66,5.7 84,23.7 84,25.7 64,5.7 			"/>
			<polygon class="st58" points="68,5.7 84,21.7 84,23.7 66,5.7 			"/>
			<polygon class="st59" points="70,5.7 84,19.7 84,21.7 68,5.7 			"/>
			<polygon class="st60" points="72,5.7 84,17.7 84,19.7 70,5.7 			"/>
			<polygon class="st61" points="74,5.7 84,15.7 84,17.7 72,5.7 			"/>
			<polygon class="st62" points="76,5.7 84,13.7 84,15.7 74,5.7 			"/>
			<polygon class="st63" points="78,5.7 84,11.7 84,13.7 76,5.7 			"/>
			<polygon class="st64" points="80,5.7 84,9.7 84,11.7 78,5.7 			"/>
			<polygon class="st65" points="82,5.7 84,7.7 84,9.7 80,5.7 			"/>
			<polygon class="st66" points="84,7.7 82,5.7 84,5.7 			"/>
		</g>
	</g>
	<g class="st0">
		<g>
			<defs>
				<rect id="SVGID_5_" x="12" y="4.7" width="72" height="60"/>
			</defs>
			<clipPath id="SVGID_6_">
				<use xlink:href="#SVGID_5_"  style="overflow:visible;"/>
			</clipPath>
			<path class="st67" d="M84,4.7L84,4.7L84,4.7z"/>
			<path class="st67" d="M84,9.8l-8.8-5.1L84,9.8z"/>
			<polygon class="st68" points="84,14.9 66.4,4.7 75.2,4.7 84,9.8 			"/>
			<polygon class="st69" points="84,20 57.6,4.7 66.4,4.7 84,14.9 			"/>
			<polygon class="st70" points="84,25.1 48.8,4.7 57.6,4.7 84,20 			"/>
			<polygon class="st71" points="84,30.1 40,4.7 48.8,4.7 84,25.1 			"/>
			<polygon class="st72" points="84,35.2 31.2,4.7 40,4.7 84,30.1 			"/>
			<polygon class="st73" points="84,40.3 22.4,4.7 31.2,4.7 84,35.2 			"/>
			<polygon class="st74" points="84,45.4 13.6,4.7 22.4,4.7 84,40.3 			"/>
			<polygon class="st75" points="84,50.4 12,8.9 12,4.7 13.6,4.7 84,45.4 			"/>
			<polygon class="st76" points="84,55.5 12,14 12,8.9 84,50.4 			"/>
			<polygon class="st77" points="84,60.6 12,19 12,14 84,55.5 			"/>
			<polygon class="st78" points="82.4,64.7 12,24.1 12,19 84,60.6 84,64.7 			"/>
			<polygon class="st79" points="73.6,64.7 12,29.2 12,24.1 82.4,64.7 			"/>
			<polygon class="st80" points="64.8,64.7 12,34.3 12,29.2 73.6,64.7 			"/>
			<polygon class="st81" points="56,64.7 12,39.3 12,34.3 64.8,64.7 			"/>
			<polygon class="st82" points="47.2,64.7 12,44.4 12,39.3 56,64.7 			"/>
			<polygon class="st83" points="38.4,64.7 12,49.5 12,44.4 47.2,64.7 			"/>
			<polygon class="st84" points="29.6,64.7 12,54.6 12,49.5 38.4,64.7 			"/>
			<polygon class="st85" points="20.8,64.7 12,59.7 12,54.6 29.6,64.7 			"/>
			<polygon class="st86" points="12,59.7 20.8,64.7 12,64.7 			"/>
		</g>
	</g>
	<g class="st0">
		<g>
			<defs>
				<rect id="SVGID_7_" x="11" y="4.7" width="72" height="60"/>
			</defs>
			<clipPath id="SVGID_8_">
				<use xlink:href="#SVGID_7_"  style="overflow:visible;"/>
			</clipPath>
			<path class="st87" d="M11,64.7L11,64.7z"/>
			<rect x="11" y="62.5" class="st87" width="72" height="2.2"/>
			<rect x="11" y="60.3" class="st88" width="72" height="2.2"/>
			<rect x="11" y="58.1" class="st89" width="72" height="2.2"/>
			<rect x="11" y="55.9" class="st90" width="72" height="2.2"/>
			<rect x="11" y="53.6" class="st91" width="72" height="2.2"/>
			<rect x="11" y="51.4" class="st92" width="72" height="2.2"/>
			<rect x="11" y="49.2" class="st93" width="72" height="2.2"/>
			<rect x="11" y="47" class="st94" width="72" height="2.2"/>
			<rect x="11" y="44.7" class="st95" width="72" height="2.2"/>
			<rect x="11" y="42.5" class="st96" width="72" height="2.2"/>
			<rect x="11" y="40.3" class="st97" width="72" height="2.2"/>
			<rect x="11" y="38.1" class="st98" width="72" height="2.2"/>
			<rect x="11" y="35.9" class="st99" width="72" height="2.2"/>
			<rect x="11" y="33.6" class="st100" width="72" height="2.2"/>
			<rect x="11" y="31.4" class="st101" width="72" height="2.2"/>
			<rect x="11" y="29.2" class="st102" width="72" height="2.2"/>
			<rect x="11" y="27" class="st103" width="72" height="2.2"/>
			<rect x="11" y="24.7" class="st104" width="72" height="2.2"/>
			<rect x="11" y="22.5" class="st105" width="72" height="2.2"/>
			<rect x="11" y="20.3" class="st106" width="72" height="2.2"/>
			<rect x="11" y="18.1" class="st107" width="72" height="2.2"/>
			<rect x="11" y="15.9" class="st108" width="72" height="2.2"/>
			<rect x="11" y="13.6" class="st109" width="72" height="2.2"/>
			<rect x="11" y="11.4" class="st110" width="72" height="2.2"/>
			<rect x="11" y="9.2" class="st111" width="72" height="2.2"/>
			<rect x="11" y="7" class="st112" width="72" height="2.2"/>
			<rect x="11" y="4.7" class="st113" width="72" height="2.2"/>
		</g>
	</g>
</g>
</svg>
