<?xml version="1.0" encoding="utf-8"?>
<!-- Generator: Adobe Illustrator 19.2.1, SVG Export Plug-In . SVG Version: 6.00 Build 0)  -->
<svg version="1.1" id="Layer_1" xmlns="http://www.w3.org/2000/svg" xmlns:xlink="http://www.w3.org/1999/xlink" x="0px" y="0px"
	 viewBox="0 0 503.333 351.024" style="enable-background:new 0 0 503.333 351.024;" xml:space="preserve">
<style type="text/css">
	.st0{fill:#FFFFFF;stroke:#E6E6E6;stroke-width:4;stroke-miterlimit:10;}
	.st1{fill:#F2F2F2;}
	.st2{fill:#E6E6E6;}
	.st3{fill:#CCCCCC;}
	.st4{fill:#29AAE2;}
	.st5{fill:#1D87AD;}
	.st6{fill:#FFFFFF;}
</style>
<path class="st0" d="M415.962,296H69.555c-6.627,0-12-5.373-12-12V52c0-6.627,5.373-12,12-12h346.407c6.627,0,12,5.373,12,12v232
	C427.962,290.627,422.59,296,415.962,296z"/>
<g>
	<path class="st1" d="M180.697,168.993c0.968,1.384,2.174,2.589,3.559,3.556c0.968,1.384,2.174,2.59,3.557,3.557
		c0.969,1.382,2.176,2.587,3.562,3.554c0.968,1.384,2.174,2.422,3.559,3.389c2.579,3.688,6.853,5.951,11.673,5.951h42.714
		c7.831,0,14.238-6.233,14.238-14.056c0-4.814-2.432-9-6.125-11.576c-0.968-1.384-2.174-2.547-3.559-3.514
		c-0.968-1.384-2.174-2.569-3.557-3.537c-0.969-1.382-2.176-2.577-3.562-3.543c-0.968-1.384-2.174-2.639-3.559-3.606
		c-2.579-3.688-6.853-6.168-11.673-6.168H188.81c-7.831,0-14.238,6.456-14.238,14.278
		C174.573,162.092,177.005,166.417,180.697,168.993z"/>
	<path class="st1" d="M95.27,168.993c0.968,1.384,2.174,2.589,3.559,3.556c0.968,1.384,2.174,2.59,3.557,3.557
		c0.969,1.382,2.176,2.587,3.562,3.554c0.968,1.384,2.174,2.422,3.559,3.389c2.579,3.688,6.853,5.951,11.673,5.951h42.714
		c7.831,0,14.238-6.233,14.238-14.056c0-4.814-2.432-9-6.125-11.576c-0.968-1.384-2.174-2.547-3.559-3.514
		c-0.968-1.384-2.173-2.569-3.557-3.537c-0.969-1.382-2.176-2.577-3.562-3.543c-0.968-1.384-2.174-2.639-3.559-3.606
		c-2.579-3.688-6.853-6.168-11.673-6.168h-42.714c-7.831,0-14.238,6.456-14.238,14.278C89.145,162.092,91.578,166.417,95.27,168.993
		z"/>
	<path class="st1" d="M342.862,163.451c-0.968-1.384-2.174-2.589-3.559-3.556c-0.968-1.384-2.174-2.59-3.557-3.558
		c-0.969-1.382-2.176-2.587-3.562-3.553c-0.968-1.384-2.174-2.644-3.559-3.611c-2.579-3.688-6.853-6.174-11.673-6.174h-42.714
		c-7.831,0-14.238,6.456-14.238,14.278c0,4.814,2.432,9.111,6.125,11.688c0.968,1.384,2.174,2.603,3.559,3.569
		c0.968,1.384,2.174,2.597,3.557,3.564c0.969,1.382,2.176,2.591,3.562,3.557c0.968,1.384,2.174,2.424,3.559,3.391
		c2.579,3.688,6.853,5.953,11.673,5.953h42.714c7.831,0,14.238-6.233,14.238-14.056C348.986,170.13,346.554,166.028,342.862,163.451
		z"/>
	<path class="st1" d="M328.624,220.34c-0.968-1.384-2.174-2.589-3.559-3.556c-0.968-1.384-2.173-2.59-3.557-3.558
		c-0.969-1.382-2.176-2.587-3.562-3.553c-0.968-1.384-2.174-2.589-3.559-3.556c-2.579-3.688-6.853-6.118-11.673-6.118H260
		c-7.831,0-14.238,6.4-14.238,14.222c0,4.814,2.432,9.084,6.125,11.66c0.968,1.384,2.174,2.589,3.559,3.556
		c0.968,1.384,2.173,2.59,3.557,3.557c0.969,1.382,2.176,2.587,3.562,3.554c0.968,1.384,2.174,2.755,3.559,3.722
		c0.66,0.944,1.435,1.729,2.298,2.729H103.383c-7.831,0-14.238,6.233-14.238,14.056c0,4.814,2.432,9,6.125,11.577
		c0.968,1.384,2.174,2.547,3.559,3.514c0.968,1.384,2.174,2.569,3.557,3.537c0.969,1.382,2.176,2.577,3.562,3.543
		c0.968,1.384,2.174,2.639,3.559,3.606c2.579,3.688,6.853,6.168,11.673,6.168h170.854c7.831,0,14.238-6.456,14.238-14.278
		c0-4.814-2.432-9.111-6.125-11.688c-0.968-1.384-2.174-2.603-3.559-3.569c-0.968-1.384-2.173-2.597-3.557-3.565
		c-0.969-1.382-2.176-2.59-3.562-3.557c-0.968-1.384-2.174-2.201-3.559-3.168c-0.66-0.944-1.435-2.175-2.298-2.175h36.899
		c7.831,0,14.238-6.789,14.238-14.611C334.749,227.574,332.316,222.917,328.624,220.34z"/>
</g>
<path class="st1" d="M425.96,160.871c-0.394-0.344-0.8-0.675-1.23-0.975c-0.968-1.384-2.174-2.59-3.557-3.558
	c-0.969-1.382-2.176-2.587-3.562-3.553c-0.968-1.384-2.174-2.644-3.559-3.611c-2.579-3.688-6.853-6.173-11.673-6.173h-42.714
	c-7.831,0-14.238,6.456-14.238,14.278c0,4.814,2.432,9.111,6.125,11.688c0.968,1.384,2.174,2.603,3.559,3.569
	c0.968,1.384,2.174,2.597,3.557,3.564c0.969,1.382,2.176,2.591,3.562,3.557c0.968,1.384,2.174,2.424,3.559,3.391
	c2.579,3.688,6.853,5.953,11.673,5.953h42.714c2.058,0,4.013-0.44,5.784-1.217V160.871z"/>
<g>
	<path class="st2" d="M315.852,168h-47.078c-6.627,0-12-5.373-12-12v-4c0-6.627,5.373-12,12-12h47.078c6.627,0,12,5.373,12,12v4
		C327.852,162.627,322.48,168,315.852,168z"/>
	<path class="st2" d="M400.946,168h-47.078c-6.627,0-12-5.373-12-12v-4c0-6.627,5.373-12,12-12h47.078c6.627,0,12,5.373,12,12v4
		C412.946,162.627,407.573,168,400.946,168z"/>
	<path class="st2" d="M229.758,168h-47.078c-6.627,0-12-5.373-12-12v-4c0-6.627,5.373-12,12-12h47.078c6.627,0,12,5.373,12,12v4
		C241.758,162.627,236.385,168,229.758,168z"/>
	<path class="st2" d="M144.664,168H97.586c-6.627,0-12-5.373-12-12v-4c0-6.627,5.373-12,12-12h47.078c6.627,0,12,5.373,12,12v4
		C156.664,162.627,151.291,168,144.664,168z"/>
	<path class="st3" d="M300.836,224h-47.078c-6.627,0-12-5.373-12-12v-4c0-6.627,5.373-12,12-12h47.078c6.627,0,12,5.373,12,12v4
		C312.836,218.627,307.463,224,300.836,224z"/>
	<path class="st3" d="M272.805,267H97.586c-6.627,0-12-5.373-12-12v-4c0-6.627,5.373-12,12-12h175.219c6.627,0,12,5.373,12,12v4
		C284.805,261.627,279.432,267,272.805,267z"/>
</g>
<path class="st4" d="M397.929,200c-35.385,0-64.07,25.072-64.07,56c0,16.909,8.586,32.056,22.142,42.324c0,0,9.579,11.343,0,37.676
	c-3.94,10.831,30.94-24.837,30.94-24.837c3.572,0.54,7.24,0.837,10.989,0.837c35.385,0,64.07-25.072,64.07-56
	C462,225.072,433.314,200,397.929,200z"/>
<g>
	<polyline class="st5" points="353.881,276 385.916,244 409.942,268 441.978,236 	"/>
	<path class="st6" d="M353.881,276c1.03-1.639,2.098-3.239,3.188-4.818c1.091-1.578,2.201-3.135,3.336-4.669
		c2.251-3.086,4.59-6.083,6.95-9.06c1.199-1.47,2.378-2.958,3.592-4.412c1.22-1.448,2.42-2.916,3.656-4.349l3.714-4.29l3.774-4.231
		l3.371-3.779l4.279,3.779c1.063,0.938,2.102,1.9,3.154,2.849c1.052,0.949,2.1,1.902,3.123,2.88
		c2.064,1.938,4.123,3.881,6.141,5.866c2.015,1.987,4.02,3.985,5.989,6.018c1.98,2.022,3.9,4.104,5.849,6.158h-8.107l4.197-3.807
		l4.269-3.735l4.344-3.66c1.479-1.189,2.938-2.398,4.434-3.57c1.5-1.168,2.99-2.346,4.524-3.48c1.514-1.154,3.071-2.265,4.623-3.381
		c1.565-1.103,3.145-2.191,4.755-3.249c0.81-0.523,1.613-1.055,2.445-1.556c0.828-0.506,1.643-1.025,2.498-1.503
		c-0.48,0.855-0.999,1.669-1.506,2.497c-0.502,0.832-1.035,1.634-1.559,2.444c-1.06,1.609-2.15,3.187-3.254,4.751
		c-1.118,1.551-2.231,3.106-3.386,4.619c-1.136,1.533-2.315,3.022-3.485,4.52c-1.174,1.494-2.384,2.952-3.575,4.43l-3.665,4.34
		l-3.74,4.265l-3.811,4.193l-3.751,4.126l-4.357-4.126c-2.056-1.947-4.14-3.864-6.164-5.842c-2.035-1.967-4.035-3.97-6.024-5.982
		c-1.987-2.015-3.932-4.072-5.873-6.134c-0.98-1.022-1.933-2.069-2.884-3.12c-0.95-1.051-1.913-2.089-2.853-3.151l7.65,0
		l-4.235,3.769l-4.295,3.71c-1.434,1.234-2.903,2.433-4.353,3.651c-1.455,1.213-2.945,2.391-4.416,3.588
		c-2.98,2.356-5.98,4.692-9.068,6.94c-1.535,1.133-3.094,2.242-4.673,3.331C357.122,273.906,355.52,274.972,353.881,276z"/>
</g>
</svg>
