<?xml version="1.0" encoding="utf-8"?>
<!-- Generator: Adobe Illustrator 19.2.1, SVG Export Plug-In . SVG Version: 6.00 Build 0)  -->
<svg version="1.1" id="Layer_1" xmlns="http://www.w3.org/2000/svg" xmlns:xlink="http://www.w3.org/1999/xlink" x="0px" y="0px"
	 viewBox="0 0 160 64" style="enable-background:new 0 0 160 64;" xml:space="preserve">
<style type="text/css">
	.st0{fill:none;stroke:#29AAE2;stroke-width:2;stroke-linecap:round;stroke-miterlimit:10;stroke-dasharray:100;}
</style>
<g>
	<path class="st0" d="M17.932,13.962c0,0,10.586-10.117,16.844,16.014c0.249,1.041,1.729,1.034,1.949-0.014
		c1.085-5.17,3.585-13.688,9.207-14"/>
</g>
<g>
	<line class="st0" x1="51.932" y1="17.962" x2="51.932" y2="29.962"/>
</g>
<g>
	<path class="st0" d="M71.932,17.962h-8.804c-1.639,0-3.121,1.227-3.193,2.864c-0.076,1.719,1.295,3.136,2.997,3.136h7.83
		c1.624,0,3.081,1.216,3.166,2.839c0.091,1.73-1.285,3.161-2.996,3.161h-9"/>
</g>
<g>
	<circle class="st0" cx="85.932" cy="23.962" r="6"/>
</g>
<g>
	<path class="st0" d="M99.932,27.962c0,0-7.833,8-8-10"/>
</g>
<g>
	<circle class="st0" cx="111.932" cy="23.962" r="6"/>
</g>
<g>
	<path class="st0" d="M117.932,23.962c0,0,4.25,26.25-10,26c-3.313-0.058-6-2.686-6-6s2.686-6,6-6h30"/>
</g>
<g>
	<path class="st0" d="M139.932,32.892c-1.177,0.681-2.543,1.07-4,1.07c-4.418,0-8-3.582-8-8s3.582-8,8-8
		c2.028,0,3.88,0.755,5.29,1.998l-7.29,8.002"/>
</g>
</svg>
