<?xml version="1.0" encoding="utf-8"?>
<!-- Generator: Adobe Illustrator 19.2.1, SVG Export Plug-In . SVG Version: 6.00 Build 0)  -->
<svg version="1.1" id="Layer_1" xmlns="http://www.w3.org/2000/svg" xmlns:xlink="http://www.w3.org/1999/xlink" x="0px" y="0px"
	 viewBox="0 0 96 96" style="enable-background:new 0 0 96 96;" xml:space="preserve">
<style type="text/css">
	.st0{clip-path:url(#SVGID_2_);fill:url(#SVGID_3_);}
	.st1{clip-path:url(#SVGID_2_);fill:url(#SVGID_4_);}
</style>
<defs>
	<path id="SVGID_1_" d="M68,19.742H28c-7.168,0-13,5.832-13,13v16c0,7.168,5.832,13,13,13h3c0,0,3.621,6.063,0,13.414
		c-2.875,5.836,13.414-13.414,13.414-13.414H68c7.168,0,13-5.832,13-13v-16C81,25.574,75.168,19.742,68,19.742z M43.382,48.742
		H21.618c-0.743,0-1.227-0.782-0.894-1.447l3-6c0.169-0.339,0.516-0.553,0.894-0.553h21.764c0.743,0,1.227,0.782,0.894,1.447l-3,6
		C44.107,48.528,43.761,48.742,43.382,48.742z M76.472,36.742H19.528c-0.552,0-1-0.448-1-1v-3c0-1.163,0.188-2.281,0.526-3.333
		c0.13-0.404,0.522-0.667,0.946-0.667h56c0.424,0,0.816,0.263,0.946,0.667c0.338,1.052,0.526,2.17,0.526,3.333v3
		C77.472,36.294,77.024,36.742,76.472,36.742z"/>
</defs>
<clipPath id="SVGID_2_">
	<use xlink:href="#SVGID_1_"  style="overflow:visible;"/>
</clipPath>
<linearGradient id="SVGID_3_" gradientUnits="userSpaceOnUse" x1="15" y1="79.7421" x2="81" y2="13.7421">
	<stop  offset="0" style="stop-color:#00A0C7"/>
	<stop  offset="1" style="stop-color:#487CB1"/>
</linearGradient>
<rect x="12" y="16.742" class="st0" width="72" height="60"/>
<linearGradient id="SVGID_4_" gradientUnits="userSpaceOnUse" x1="69.9904" y1="8.6537" x2="26.0096" y2="84.8306">
	<stop  offset="0" style="stop-color:#A04198;stop-opacity:0.6"/>
	<stop  offset="1" style="stop-color:#90559E;stop-opacity:0.1"/>
</linearGradient>
<rect x="12" y="16.742" class="st1" width="72" height="60"/>
</svg>
