<?xml version="1.0" encoding="utf-8"?>
<!-- Generator: Adobe Illustrator 19.2.1, SVG Export Plug-In . SVG Version: 6.00 Build 0)  -->
<svg version="1.1" id="Layer_1" xmlns="http://www.w3.org/2000/svg" xmlns:xlink="http://www.w3.org/1999/xlink" x="0px" y="0px"
	 viewBox="0 0 160 64" style="enable-background:new 0 0 160 64;" xml:space="preserve">
<style type="text/css">
	.st0{fill:none;stroke:url(#SVGID_1_);stroke-width:4;stroke-linecap:round;stroke-miterlimit:10;}
	.st1{fill:none;stroke:url(#SVGID_2_);stroke-width:4;stroke-linecap:round;stroke-miterlimit:10;}
	.st2{fill:none;stroke:url(#SVGID_3_);stroke-width:4;stroke-linecap:round;stroke-miterlimit:10;}
	.st3{fill:none;stroke:url(#SVGID_4_);stroke-width:4;stroke-linecap:round;stroke-miterlimit:10;}
	.st4{fill:none;stroke:url(#SVGID_5_);stroke-width:4;stroke-linecap:round;stroke-miterlimit:10;}
	.st5{fill:none;stroke:url(#SVGID_6_);stroke-width:4;stroke-linecap:round;stroke-miterlimit:10;}
	.st6{fill:none;stroke:url(#SVGID_7_);stroke-width:4;stroke-linecap:round;stroke-miterlimit:10;}
	.st7{fill:none;stroke:url(#SVGID_8_);stroke-width:4;stroke-linecap:round;stroke-miterlimit:10;}
	.st8{fill:none;stroke:url(#SVGID_9_);stroke-width:4;stroke-linecap:round;stroke-miterlimit:10;}
</style>
<linearGradient id="SVGID_1_" gradientUnits="userSpaceOnUse" x1="95.9316" y1="31.7341" x2="95.9316" y2="15.9624">
	<stop  offset="0" style="stop-color:#727477"/>
	<stop  offset="1" style="stop-color:#7C7D80"/>
</linearGradient>
<path class="st0" d="M99.932,27.962c0,0-7.833,8-8-10"/>
<linearGradient id="SVGID_2_" gradientUnits="userSpaceOnUse" x1="119.9316" y1="53.9642" x2="119.9316" y2="23.9624">
	<stop  offset="0" style="stop-color:#727477"/>
	<stop  offset="1" style="stop-color:#7C7D80"/>
</linearGradient>
<path class="st1" d="M117.932,25.962c0,0,4.25,26.25-10,26c-3.313-0.058-6-2.686-6-6s2.686-6,6-6h30"/>
<linearGradient id="SVGID_3_" gradientUnits="userSpaceOnUse" x1="31.9316" y1="32.7527" x2="31.9316" y2="10.0358">
	<stop  offset="0" style="stop-color:#727477"/>
	<stop  offset="1" style="stop-color:#7C7D80"/>
</linearGradient>
<path class="st2" d="M17.932,13.962c0,0,10.586-10.117,16.844,16.014c0.249,1.041,1.729,1.034,1.949-0.014
	c1.085-5.17,3.585-13.688,9.207-14"/>
<linearGradient id="SVGID_4_" gradientUnits="userSpaceOnUse" x1="51.9316" y1="31.9624" x2="51.9316" y2="15.9624">
	<stop  offset="0" style="stop-color:#727477"/>
	<stop  offset="1" style="stop-color:#7C7D80"/>
</linearGradient>
<line class="st3" x1="51.932" y1="17.962" x2="51.932" y2="29.962"/>
<linearGradient id="SVGID_5_" gradientUnits="userSpaceOnUse" x1="71.9316" y1="23.9624" x2="71.9316" y2="23.9624">
	<stop  offset="0" style="stop-color:#727477"/>
	<stop  offset="1" style="stop-color:#7C7D80"/>
</linearGradient>
<path class="st4" d="M71.932,23.962"/>
<linearGradient id="SVGID_6_" gradientUnits="userSpaceOnUse" x1="66.9316" y1="31.9624" x2="66.9316" y2="15.9624">
	<stop  offset="0" style="stop-color:#727477"/>
	<stop  offset="1" style="stop-color:#7C7D80"/>
</linearGradient>
<path class="st5" d="M71.932,17.962l-8.804,0c-1.639,0-3.121,1.227-3.193,2.864c-0.076,1.719,1.295,3.136,2.997,3.136l7.83,0
	c1.624,0,3.081,1.216,3.166,2.839c0.091,1.73-1.285,3.161-2.996,3.161h-9"/>
<linearGradient id="SVGID_7_" gradientUnits="userSpaceOnUse" x1="135" y1="35.9624" x2="135" y2="15.9624">
	<stop  offset="0" style="stop-color:#727477"/>
	<stop  offset="1" style="stop-color:#7C7D80"/>
</linearGradient>
<path class="st6" d="M139.932,32.892c-1.177,0.681-2.543,1.07-4,1.07c-4.418,0-8-3.582-8-8s3.582-8,8-8
	c2.028,0,3.88,0.755,5.29,1.998l-7.29,8.002"/>
<linearGradient id="SVGID_8_" gradientUnits="userSpaceOnUse" x1="111.9316" y1="33.9624" x2="111.9316" y2="17.9624">
	<stop  offset="0" style="stop-color:#727477"/>
	<stop  offset="1" style="stop-color:#7C7D80"/>
</linearGradient>
<circle class="st7" cx="111.932" cy="25.962" r="6"/>
<linearGradient id="SVGID_9_" gradientUnits="userSpaceOnUse" x1="85.9316" y1="31.9624" x2="85.9316" y2="15.9624">
	<stop  offset="0" style="stop-color:#727477"/>
	<stop  offset="1" style="stop-color:#7C7D80"/>
</linearGradient>
<circle class="st8" cx="85.932" cy="23.962" r="6"/>
</svg>
