<?xml version="1.0" encoding="utf-8"?>
<!-- Generator: Adobe Illustrator 19.2.1, SVG Export Plug-In . SVG Version: 6.00 Build 0)  -->
<svg version="1.1" id="Layer_1" xmlns="http://www.w3.org/2000/svg" xmlns:xlink="http://www.w3.org/1999/xlink" x="0px" y="0px"
	 viewBox="0 0 440 155" style="enable-background:new 0 0 440 155;" xml:space="preserve">
<style type="text/css">
	.st0{fill:#29AAE2;}
</style>
<title>capital-one-logo copy</title>
<g>
	<path class="st0" d="M289.3,110.7c-18.2,12.9-39.7,26.4-62.8,40.6l-0.9,0.5c-0.3,0.2-0.4,0.6-0.2,1c0.2,0.3,0.6,0.4,1,0.2l0.8-0.4
		c19.6-10.2,42.2-22.4,64.8-34.9c0.1-0.1,0.2-0.1,0.4-0.2C291.1,115.4,290,113.1,289.3,110.7z M408.5,14.2
		c-28.6-31.6-212.7-3.2-291,13.9l-1.8,0.4c-0.4,0.1-0.6,0.4-0.6,0.8c0.1,0.4,0.4,0.6,0.8,0.6l1.8-0.4C182.5,18,317.4,2,346.5,30.8
		c8.9,8.8,6.7,20.1-3.5,33.4c5.5,3.6,9.5,9.2,11.3,16.2C394.3,53.7,421.2,28.3,408.5,14.2z"/>
	<g>
		<path class="st0" d="M300.9,102.4c0.4,11.1,7.4,20.2,16.6,20.2c17.8,0,25.3-21.8,24.8-36.4c-0.4-11.1-7.6-20.2-16.7-20.2
			C310.2,66,300.4,87.7,300.9,102.4L300.9,102.4z M291.5,101.8c-0.7-19,14.2-38.3,35.8-38.3c14.4,0,23.9,9.6,24.4,24.3
			c0.7,20-13.2,38.3-35.8,38.3C301.5,126.1,292,116.5,291.5,101.8z M87.2,96.8c-0.8,0.3-1.8,0.6-3,0.8c-1.2,0.3-3.5,0.7-6.7,1.2
			c-2.2,0.4-3.8,0.8-4.7,1.5c-0.9,0.6-1.4,1.4-1.5,2.3c-0.2,1,0.1,1.8,1,2.4s2.3,0.9,4.3,0.9c1.5,0,3-0.2,4.5-0.7s2.7-1.1,3.7-1.9
			c0.7-0.6,1.2-1.4,1.6-2.3C86.5,100.3,86.8,98.9,87.2,96.8z M106,85.1c-0.1,1.7-0.4,3.3-0.8,5.9l-3.2,17.8
			c-0.3,1.6,0.3,2.8,1.8,3.7l-0.1,0.7H85.5l-0.2-4.5c-2.6,1.6-5.8,2.9-8.7,3.7c-2.9,0.7-5.2,1.1-8.7,1.1c-5.9,0-9.2-0.6-11.5-2.6
			c-2.4-2.1-3.5-3.5-3.4-6.4c0.1-1.7,0.9-3.8,2.2-5.3s3-2.5,4.8-3.4c1.9-0.9,4.1-1.5,7.3-2s7.7-1,13.7-1.5c3.1-0.3,5.1-1,6-1.3
			c1.3-0.5,1.7-1,1.9-2c0.3-1.8-0.2-2.9-2.7-3.4c-6.5-1.3-18.8,0.8-25.1,2.4l3.4-9.3c8.3-1.2,16.2-2,24.4-2
			C101.9,76.6,106.1,80.3,106,85.1L106,85.1z M158.6,113.2l6.3-35.6h17.4l-6.3,35.6H158.6z M165.9,69.4c0.5-2.9,5.1-5.3,10.3-5.3
			s8.9,2.4,8.4,5.3s-5.2,5.3-10.3,5.3C169.1,74.7,165.3,72.3,165.9,69.4z M244.1,96.9c-0.8,0.3-1.8,0.6-3,0.8
			c-1.2,0.3-3.5,0.7-6.8,1.2c-2.2,0.4-3.8,0.8-4.7,1.5c-0.8,0.6-1.3,1.4-1.5,2.3c-0.2,1,0.2,1.8,1,2.4c0.9,0.6,2.3,0.9,4.4,0.9
			c1.5,0,3-0.2,4.5-0.7s2.7-1.1,3.7-1.9c0.7-0.6,1.2-1.4,1.5-2.3C243.4,100.4,243.7,99,244.1,96.9L244.1,96.9z M262.8,85.2
			c-0.1,1.7-0.4,3.3-0.9,5.9l-3.1,17.8c-0.3,1.6,0.3,2.8,1.8,3.7l-0.1,0.6h-18.2l-0.1-4.5c-2.7,1.6-5.9,2.9-8.7,3.7
			c-2.9,0.8-5.2,1.1-8.7,1.1c-5.9,0-9.2-0.6-11.5-2.6c-2.4-2.1-3.5-3.5-3.4-6.4c0.1-1.7,0.9-3.8,2.2-5.3s3-2.5,4.8-3.4
			c1.9-0.9,4.1-1.5,7.3-2.1c3.2-0.5,7.7-1,13.7-1.5c3.1-0.3,5-1,5.9-1.3c1.3-0.5,1.8-1,2-2.1c0.3-1.8-0.3-2.9-2.7-3.4
			c-6.6-1.3-18.8,0.8-25.1,2.4l3.4-9.3c8.4-1.2,16.1-2,24.4-2C258.7,76.7,262.9,80.4,262.8,85.2L262.8,85.2z M50.6,100.4
			c-5.7,1.1-8.8,1.6-14.4,1.6c-8.3,0-14.9-4.1-14.6-11.7c0.3-5,6.2-15.7,21.4-15.7c4.8,0,8.5,0.8,13.5,3.7L58.7,66
			c-6.8-2.6-11.3-3-17.2-2.9c-19.9,0.2-39,9.2-41.3,27.6c-2.4,18.7,20.4,23.4,30.5,23.3c5.8,0,11.9-0.3,17.6-0.8
			C48.3,113.2,50.6,100.4,50.6,100.4z M191.9,77.4l1.2-7.2l18.2-4l-1.9,11.2h8.9l-1.7,7.2H208l-5.2,28.6c0,0-17.5-0.1-17.6,0
			l5.2-28.5h-6.6l1.3-7.2h6.8V77.4z M280.5,113.2h-17.8l8.9-49.6l17.3,0.5L280.5,113.2z M135.6,86c-2.3,0-4.3,0.7-6.2,2.1
			c-1.8,1.4-3,3.4-3.4,6.1c-0.5,3.1-0.2,5.3,1,6.7c1.2,1.4,3,2.1,5.4,2.1c1.6,0,3.2-0.3,4.4-0.9c1.5-0.8,2.5-1.6,3.4-2.9
			c1-1.4,1.6-2.9,1.9-4.7c0.5-2.8,0.1-4.9-1.2-6.3C139.6,86.7,137.9,86,135.6,86L135.6,86z M103.9,125.5l8.5-47.7h15.3l-1.2,6.1
			c1.3-1.8,3.4-3.3,6.4-4.5c2.9-1.2,6.3-2.1,9.9-2.1c4,0,6.4,0.2,9.4,1.8s5,3.8,6.2,6.8c1.1,2.9,1.4,6.1,0.8,9.7
			c-1,5.9-3.9,10.5-8.6,13.9c-4.7,3.4-8.9,4.3-14.8,4.3c-2.1,0-3.9-0.2-5.4-0.6c-1.4-0.4-2.6-0.8-3.5-1.4c-0.8-0.6-1.7-1.3-2.9-2.6
			l-2.8,16.3L103.9,125.5L103.9,125.5z M419.7,90.4c-0.1-2.9-1.5-4.8-4.5-4.8c-7.1,0-14.7,14-16,19.6
			C410.8,105.2,419.9,98.2,419.7,90.4z M421.2,112.3l1.4,0.9c-3.5,7.1-10.6,12.8-18.9,12.8c-6.8,0-12.4-4.5-12.7-13
			c-0.5-15.2,13.7-29.4,25.4-29.4c5,0,9.7,2.2,9.9,7.6c0.4,12.1-16.6,15.8-27.8,16.1c-0.4,1.3-0.5,2.5-0.4,4.5
			c0.2,5,3.2,9.3,9.5,9.3C413,120.9,418.4,116.6,421.2,112.3z"/>
		<path class="st0" d="M351.4,90c1.2-0.2,3.2-0.4,4-0.4c1.3,0,2.5,0.2,2.5,1.5c0,0.8-1.3,6.2-1.6,7.4l-2.7,12
			c-1.1,4.9-2.3,10-3.3,14.1h7l3.9-18.9c12-12.4,16.6-16.5,19.4-16.5c1.3,0,2.1,0.7,2.2,2.2c0.1,2.2-1.3,7.2-1.8,8.6l-4,13.8
			c-0.9,3.1-1.6,5.9-1.5,7.9c0.1,3,2,4.4,4.7,4.4c5.1,0,8.8-5.3,12-10.5l-0.9-1.7c-1.3,2.1-4.3,6.7-6.7,6.7c-0.8,0-1.5-0.5-1.5-1.8
			c-0.1-1.6,0.6-4,1.1-5.6l4.4-16.2c1.2-4.5,1.8-7.3,1.7-8.9c-0.1-3-1.9-4.4-4.6-4.4c-4.6,0-10.7,3.3-23.6,18.2h-0.2l1.6-7.2
			c0.9-4,1.7-8.1,2.6-10.9c-4.5,1.6-10.8,3.4-14.8,4.2L351.4,90L351.4,90z"/>
	</g>
	<path class="st0" d="M427.4,77.1c0-3.6,2.9-6.2,6.3-6.2s6.2,2.6,6.2,6.2s-2.9,6.2-6.2,6.2C430.2,83.3,427.4,80.7,427.4,77.1z
		 M433.7,82.3c2.8,0,5-2.2,5-5.2c0-2.9-2.2-5.1-5-5.1s-5,2.2-5,5.1C428.6,80.1,430.8,82.3,433.7,82.3z M432.3,80.7h-1.1v-7.1h2.7
		c1.7,0,2.5,0.6,2.5,2c0,1.3-0.8,1.8-1.9,2l2,3.1h-1.2l-1.9-3.1h-1.2v3.1H432.3z M433.6,76.7c0.9,0,1.7-0.1,1.7-1.2
		c0-0.9-0.8-1-1.6-1h-1.5v2.2H433.6z"/>
</g>
</svg>
