<?xml version="1.0" encoding="utf-8"?>
<!-- Generator: Adobe Illustrator 19.2.1, SVG Export Plug-In . SVG Version: 6.00 Build 0)  -->
<svg version="1.1" id="Layer_1" xmlns="http://www.w3.org/2000/svg" xmlns:xlink="http://www.w3.org/1999/xlink" x="0px" y="0px"
	 viewBox="0 0 192.756 192.756" style="enable-background:new 0 0 192.756 192.756;" xml:space="preserve">
<style type="text/css">
	.st0{fill:#29AAE2;}
</style>
<g>
	<path class="st0" d="M19.857,101.391v5.707c-1.808,1.5-4.817,2.633-7.211,2.508c-5.648-0.287-9.812-4.967-9.812-12.57
		c0-6.924,2.988-13.927,10.328-13.927c2.103,0,4.354,0.75,5.793,1.728l0.554,5.525h-1.931c-0.664-3.801-2.721-5.696-4.603-5.696
		c-2.982,0-4.544,4.322-4.304,11.584c0.25,7.525,1.98,11.658,4.747,11.658c2.139,0,4.05-2.299,4.604-6.516L19.857,101.391
		L19.857,101.391z"/>
	<path class="st0" d="M26.8,103.318c0,3.463-0.051,4.316,1.129,4.506v1.178H21.07v-1.215c0.664,0,0.963-0.449,1.111-1.016
		c0.147-0.488,0.13-1.072,0.125-2.838V87.24l-1.417-1.186v-0.767l4.662-1.854h1.198v10.649c1.651-1.301,2.665-1.86,4.691-1.807
		c2.054,0.055,3.292,1.322,3.521,4.293c0.092,1.191-0.15,4.396,0,10.023c0.021,0.742,0.568,1.232,1.269,1.232v1.178h-6.953v-1.178
		c1.217-0.152,1.16-0.607,1.124-1.9c0,0,0.069-4.389,0-7.418c-0.046-1.971-0.012-3.175-1.667-3.179
		c-0.958-0.002-1.852,0.821-1.914,1.8C26.761,98.084,26.8,103.318,26.8,103.318L26.8,103.318z"/>
	<path class="st0" d="M51.695,95.102v-0.979l4.132-1.661h1.422l0.381,2.864c0,0,0.54-0.643,1.093-1.314
		c0.604-0.735,1.237-1.629,1.545-1.629c1.13,0,3.262,2.252,3.171,2.718c-0.322,1.645-1.384,3.334-1.8,3.317
		c-0.417-0.02-1.111-0.703-1.478-1.117c-0.179-0.201-0.642-0.639-0.861-0.639c-0.295,0-1.148,0.82-1.554,2.025v4.74
		c0,2.07,0,2.404,0,3.092s1.185,1.195,1.922,1.195v1.367h-7.792v-1.439c0.774,0,1.043-0.594,1.191-1.16
		c0.11-0.49,0.04-3.236,0.04-3.236l-0.005-7.24L51.695,95.102L51.695,95.102z"/>
	<path class="st0" d="M83.196,105.344c-1.21,2.604-2.994,4.082-5.835,4.262c-4.013,0.258-7.211-3.678-7.038-8.432
		c0.193-5.312,3.203-9.066,7.185-8.971c6.006,0.144,6.056,7.43,5.796,7.43c-3.076,0-7.956,0-7.956,0s-0.254,3.174,0.77,4.883
		c0.698,1.164,1.58,1.988,2.686,1.988c1.144,0,2.248-0.75,2.948-2.027L83.196,105.344L83.196,105.344z M78.325,94.77
		c-0.325-0.529-0.7-0.685-1.216-0.685c-1.052,0-1.883,1.488-1.776,3.884h3.361C78.694,97.969,78.873,95.659,78.325,94.77
		L78.325,94.77z"/>
	<path class="st0" d="M84.229,103.844h1.303c0,0,1.563,3.984,3.716,3.877c0.847-0.045,1.945-0.672,1.945-1.613
		c0-1.053-0.227-1.842-1.555-2.707l-1.955-1.316c-2.401-1.73-3.473-2.891-3.357-4.805c0.155-2.571,1.471-3.884,3.002-4.513
		c2.613-1.073,5.904-0.021,7.162,0.667v3.879h-1.283c0,0-0.778-3.473-3.148-3.373c-1.504,0.063-3.486,2.324,0.394,4.294
		c1.882,0.957,5.043,3.008,4.866,5.988c-0.25,4.184-3.312,5.381-6.115,5.426c-3.156,0.051-4.975-1.568-4.975-1.568V103.844
		L84.229,103.844z"/>
	<path class="st0" d="M100.504,101.551c0.775,3.764,2.289,5.508,4.314,5.834c1.348,0.215,3.447-0.756,3.738-2.414
		c0.242-1.387,0.527-2.658-1.717-5.035l-4.73-3.501c-2.543-2.233-3.684-3.98-3.684-6.238c0-3.764,3.021-7.054,7.004-7.054
		c2.361,0,4.545,0.5,6.535,2.011l0.145,5.253h-1.895c0,0-0.404-5.923-4.787-5.563c-1.25,0.104-2.719,1.483-2.719,2.838
		c0,1.017,0.564,3.117,5.486,6.193c4.922,3.076,5.129,5.914,4.943,8.695c-0.254,3.74-3.137,7.035-7.635,7.035
		c-2.104,0-4.627-0.672-6.73-2.088v-6.004L100.504,101.551L100.504,101.551z"/>
	<path class="st0" d="M126.375,105.539c-1.475,2.465-2.689,3.914-5.381,3.986c-4.094,0.109-6.936-3.494-6.936-8.65
		c0-2.291,1.293-8.817,7.6-8.745c2.986,0.035,4.691,1.548,4.691,3.806c0,1.466-0.775,2.157-2.104,2.157s-1.777-0.758-2.109-2.563
		c0,0,0.021-1.601-1.074-1.673c-1.578-0.104-2.475,1.421-2.498,4.525c-0.035,5.051,1.254,7.762,3.73,7.832
		c1.145,0.035,1.658-0.488,2.836-1.598L126.375,105.539L126.375,105.539z"/>
	<path class="st0" d="M153.564,109.318l-2.641-8.09l-2.562,8.162h-2.252l-3.5-10.963c-1.162-3.814-0.859-3.937-2.207-4.527v-1.169
		h6.625l0.012,1.169c-0.572,0.264-0.758,0.61-0.641,1.065c0.139,0.549,1.992,6.542,1.992,6.542l1.479-4.18
		c0,0-0.244-3.259-1.574-3.427v-1.169h6.537V93.9c-0.68,0.038-0.723,0.43-0.723,1.031c0,0.34,1.992,6.46,1.992,6.46
		s1.932-5.432,1.932-5.921c0-1.054-0.098-1.307-1.137-1.571V92.73h4.709l0.01,1.182c-1.072,0.312-1.357,0.811-1.969,2.995
		l-3.684,12.373L153.564,109.318L153.564,109.318z"/>
	<path class="st0" d="M180.68,93.427l0.322,0.208c1.404-1.555,4.281-2.094,5.676-1.215c2.934,1.847,3.277,5.574,3.242,8.31
		c-0.037,2.787-1.818,7.951-6.688,8.643c-2.547,0.359-5.135-0.344-7.162-1.736V87.194l-1.346-1.072v-1.018l5.002-1.8h0.953
		L180.68,93.427L180.68,93.427z M180.676,106.213c0,1.957,2.357,1.652,2.863,1.084c1.129-1.266,1.52-2.283,1.611-5.951
		c0.102-3.979-1.178-6.106-2.916-5.853c-0.447,0.066-0.836-0.069-1.559,0.7v10.02H180.676z"/>
	<path class="st0" d="M68.9,103.318c0,3.463,0.118,4.316,1.297,4.506v1.178h-7.003v-1.215c0.664,0,1.058-0.449,1.205-1.016
		c0.147-0.488,0.046-0.855,0.042-2.838l-0.01-16.694l-1.418-1.186v-0.767l4.663-1.854H68.9V103.318L68.9,103.318z"/>
	<path class="st0" d="M50.828,107.689c-1.07,1.168-1.997,1.574-3.324,1.574c-1.031,0-2.331-1.082-2.85-1.875
		c-1.244,1.49-3.269,1.902-4.171,1.902c-2.176,0-3.898-1.324-4.061-3.68c-0.138-1.99,0.861-3.457,3.665-5l4.564-2.266
		c0,0,0.17-2.238-0.068-3.55c-0.121-0.667-0.93-1.181-1.722-1.146c-0.419,0.02-1.552,0.1-1.734,1.61
		c-0.042,0.348-0.059,1.044,0.074,1.589l-3.705,0.916c-0.258-0.424-0.452-0.842-0.332-1.623c0.436-2.828,2.869-4.102,6.459-4.102
		c1.5,0,3.08,0.323,4.146,1.267c0.962,0.853,1.578,1.702,1.578,3.998l-0.01,5.564c0,2.146-0.096,3.301,0.603,3.375
		c0.331,0.033,0.539-0.047,0.908-0.154L50.828,107.689L50.828,107.689z M43.042,101.188c-1.306,0.787-2.101,1.658-2.101,2.861
		c0,1.092,0.454,1.855,1.579,2.166c0.843,0.234,2.01-0.615,2.082-1.373c0.059-0.623-0.019-4.5-0.019-4.5
		S44.204,100.488,43.042,101.188L43.042,101.188z"/>
	<path class="st0" d="M175.07,107.689c-1.07,1.168-1.996,1.574-3.326,1.574c-1.029,0-2.33-1.082-2.848-1.875
		c-1.244,1.49-3.27,1.902-4.172,1.902c-2.176,0-3.898-1.324-4.062-3.68c-0.137-1.99,0.863-3.457,3.666-5l4.564-2.266
		c0,0,0.17-2.238-0.068-3.55c-0.123-0.667-0.932-1.181-1.723-1.146c-0.42,0.02-1.553,0.1-1.734,1.61
		c-0.041,0.348-0.059,1.044,0.074,1.589l-3.705,0.916c-0.258-0.424-0.451-0.842-0.332-1.623c0.436-2.828,2.871-4.102,6.461-4.102
		c1.5,0,3.078,0.323,4.145,1.267c0.961,0.853,1.578,1.702,1.578,3.998l-0.01,5.564c0,2.146-0.098,3.301,0.602,3.375
		c0.332,0.033,0.541-0.047,0.908-0.154L175.07,107.689L175.07,107.689z M167.285,101.188c-1.307,0.787-2.102,1.658-2.102,2.861
		c0,1.092,0.453,1.855,1.578,2.166c0.844,0.234,2.01-0.615,2.082-1.373c0.059-0.623-0.018-4.5-0.018-4.5
		S168.445,100.488,167.285,101.188L167.285,101.188z"/>
	<path class="st0" d="M132.266,103.318c0,3.463-0.051,4.316,1.129,4.506v1.178h-6.859v-1.215c0.664,0,0.963-0.449,1.111-1.016
		c0.146-0.488,0.131-1.072,0.125-2.838V87.24l-1.418-1.186v-0.767l4.662-1.854h1.199v10.649c1.65-1.301,2.664-1.86,4.691-1.807
		c2.053,0.055,3.24,1.322,3.469,4.293c0.092,1.191-0.047,4.396,0.104,10.023c0.021,0.742,0.516,1.232,1.219,1.232v1.178h-6.955
		v-1.178c1.217-0.152,1.182-0.607,1.145-1.9c0,0,0.027-4.389-0.041-7.418c-0.047-1.971,0.01-3.175-1.646-3.179
		c-0.959-0.002-1.852,0.821-1.914,1.8C132.227,98.084,132.266,103.318,132.266,103.318L132.266,103.318z"/>
</g>
</svg>
