<?xml version="1.0" encoding="utf-8"?>
<!-- Generator: Adobe Illustrator 19.2.1, SVG Export Plug-In . SVG Version: 6.00 Build 0)  -->
<svg version="1.1" id="Layer_1" xmlns="http://www.w3.org/2000/svg" xmlns:xlink="http://www.w3.org/1999/xlink" x="0px" y="0px"
	 viewBox="0 0 561.578 104.369" style="enable-background:new 0 0 561.578 104.369;" xml:space="preserve">
<style type="text/css">
	.st0{fill:#29AAE2}
</style>
<path class="st0" d="M494.525,0c-2.035,0-3.691,1.65-3.691,3.686v25.83h68.244L528,0.008L494.525,0"/>
<path class="st0" d="M561.578,37.33c0-2.039-1.646-3.68-3.688-3.68h-25.828v68.242l29.504-31.086L561.578,37.33"/>
<path class="st0" d="M524.236,104.369c2.023,0,3.678-1.65,3.678-3.688V74.854h-68.241l31.073,29.508L524.236,104.369"/>
<path class="st0" d="M457.18,67.043c0,2.033,1.646,3.688,3.686,3.688h25.83V2.484l-29.512,31.078L457.18,67.043"/>
<polyline class="st0" points="144.379,12.453 144.379,43.967 100.469,43.967 100.469,12.453 84.482,12.447 84.482,91.908
	100.469,91.908 100.469,57.771 144.379,57.771 144.379,91.908 160.395,91.908 160.395,12.453 144.379,12.453 "/>
<polyline class="st0" points="357.123,12.453 357.123,91.894 427.287,91.89 418.396,77.91 373.166,77.91 373.166,57.771
	416.963,57.771 416.963,44.299 373.166,44.299 373.166,26.111 418.322,26.111 427.033,12.453 357.123,12.453 "/>
<path class="st0" d="M25.043,12.443C8.404,12.443,0,22.549,0,37.266v29.665C0,83.957,10.824,91.91,24.957,91.91l50.164-0.01
	l-9.293-14.521H28.053c-8.021,0-11.515-2.899-11.515-11.881v-26.91c0-8.684,2.939-12.072,11.729-12.072h37.955l8.928-14.072
	L25.043,12.443"/>
<path class="st0" d="M286.947,12.42c-9.613,0-19.451,5.771-19.451,20.625v3.816c0,15.475,9.476,21.389,18.949,21.432h33.275
	c3.455,0,6.264,0.572,6.264,6.416l-0.004,6.754c-0.086,5.236-2.711,6.447-6.379,6.447H275.83l-8.967,13.979h53.762
	c12.972,0,21.773-6.447,21.773-21.353V65.06c0-14.408-8.176-21.207-20.859-21.207h-31.77c-3.525,0-5.976-0.967-5.976-6.184
	c0-0.008-0.004-5.492-0.004-5.492c0-4.443,1.688-6.066,5.791-6.066l41.683-0.016l8.715-13.69L286.947,12.42"/>
<path class="st0" d="M206.863,12.465L169.184,91.9h17.811l7.338-16.405h40.941l7.315,16.405h17.882l-37.765-79.436L206.863,12.465
	 M214.759,28.953l14.479,33.021h-28.867L214.759,28.953z"/>
</svg>
