<?xml version="1.0" encoding="utf-8"?>
<!-- Generator: Adobe Illustrator 19.2.1, SVG Export Plug-In . SVG Version: 6.00 Build 0)  -->
<svg version="1.1"
	 id="Layer_1" xmlns:cc="http://creativecommons.org/ns#" xmlns:dc="http://purl.org/dc/elements/1.1/" xmlns:rdf="http://www.w3.org/1999/02/22-rdf-syntax-ns#"
	 xmlns="http://www.w3.org/2000/svg" xmlns:xlink="http://www.w3.org/1999/xlink" x="0px" y="0px" viewBox="0 0 300 194.955"
	 style="enable-background:new 0 0 300 194.955;" xml:space="preserve">
<style type="text/css">
	.st0{fill:#currentcolor;}
</style>
<g transform="matrix(2.4760713,0,0,2.4760713,-2.9521334,-2.9521466)">
	<path class="st0" d="M38.4,64.215l-0.214,0.207c-3.447,3.512-7.436,5.373-11.546,5.373c-8.58,0-14.809-6.437-14.809-15.318
		c0-8.865,6.228-15.311,14.809-15.311c4.111,0,8.1,1.869,11.546,5.39l0.214,0.213l5.518-6.672l-0.147-0.181
		c-4.589-5.423-10.095-8.063-16.864-8.063c-6.793,0-13.002,2.286-17.477,6.409C4.567,40.725,2,47.021,2,54.476
		c0,7.452,2.567,13.763,7.429,18.229c4.475,4.142,10.684,6.415,17.477,6.415c6.769,0,12.275-2.638,16.864-8.064l0.147-0.168
		L38.4,64.215z"/>
	<path class="st0" d="M49.495,78.212h9.748V30.625h-9.748V78.212z"/>
	<path class="st0" d="M97.427,67.865c-2.601,1.584-5.021,2.38-7.195,2.38c-3.149,0-4.573-1.662-4.573-5.365v-25.25h9.928v-8.961
		H85.66V15.861l-9.555,5.113v9.694h-8.243v8.961h8.243V66.49c0,7.318,4.335,12.318,10.806,12.448
		c4.394,0.086,7.043-1.223,8.651-2.18l0.094-0.07l2.347-9.176L97.427,67.865L97.427,67.865z"/>
	<path class="st0" d="M105.501,78.212h9.755V30.625h-9.755V78.212z"/>
	<path class="st0" d="M121.095,22.181C112.171,9.541,97.352,2,82.274,2C67.203,2,52.38,9.541,43.472,22.181l-0.457,0.65h11.236
		l0.125-0.135c7.647-7.893,17.631-12.067,27.899-12.067c10.27,0,20.251,4.174,27.913,12.067l0.124,0.135h11.232L121.095,22.181
		L121.095,22.181z"/>
</g>
</svg>
