<?xml version="1.0" encoding="utf-8"?>
<!-- Generator: Adobe Illustrator 19.2.1, SVG Export Plug-In . SVG Version: 6.00 Build 0)  -->
<svg version="1.1" id="Layer_1" xmlns="http://www.w3.org/2000/svg" xmlns:xlink="http://www.w3.org/1999/xlink" x="0px" y="0px"
	 viewBox="0 0 192.756 192.756" style="enable-background:new 0 0 192.756 192.756;" xml:space="preserve">
<style type="text/css">
	.st0{fill:#FFFFFF;}
</style>
<g>
	<path class="st0" d="M76.87,92.178h-9.273l-3.305,7.361h9.273l-3.408,7.592h-9.273l-7.003,15.602H45.55l17.164-38.235h16.644
		v-24.09H8.504V71.16c2.921-1.249,8.294-3.064,15.916-3.69c12.048-0.99,13.038,4.951,12.543,7.262
		c-0.542,2.525-3.443,9.865,5.556,9.767l-3.176,7.255c-1.458,0.249-3.325,0.471-5.351,0.471c-4.621,0-2.806-5.281-1.98-7.427
		c0.825-2.145,2.966-7.907-7.756-7.591c-6.071,0.179-11.51,1.758-15.751,3.509v7.644c6.921-2.331,21.9-6.445,20.372,2.214
		c-1.644,9.316-1.24,9.193,7.343,8.316l-3.802,8.686c-4.402,0.494-9.532-0.035-8.162-5.613c1.805-7.35-2.737-8.756-15.751-5.004
		v6.975c5.41-1.492,14.642-3.17,13.11,3.311c-1.618,6.846,0.991,7.4,7.894,6.977l-3.726,8.514c-3.936,0.57-9.427,0.455-8.458-4.928
		c1.13-6.277-2.805-6.25-8.82-4.061v17.518h70.854v-44.63L76.87,92.178L76.87,92.178z"/>
	<path class="st0" d="M88.269,61.31c1.393,0.089,2.606,0.148,2.606,2.105v14.32c0,1.835-0.918,1.924-2.606,2.101v0.741h10.657
		v-0.741c-2.078-0.089-3.264-0.148-3.264-2.101v-6.894c3.739,0,4.213,2.16,4.54,4.586h0.74v-9.996h-0.74
		c-0.416,2.373-0.861,4.478-4.54,4.419v-6.896c0-1.278,0.534-1.397,2.135-1.397c5.086,0,5.881,1.873,6.529,4.964h0.701v-5.954
		H88.269V61.31L88.269,61.31z"/>
	<path class="st0" d="M113.414,79.877c-1.156-0.119-1.393-0.771-1.393-1.691V66.922h-5.688v0.701
		c1.125,0.208,1.568,0.416,1.568,1.75v8.723c0,1.424-0.502,1.513-1.568,1.78v0.702h7.08L113.414,79.877L113.414,79.877z"/>
	<path class="st0" d="M107.652,62.419c0,1.271,0.945,2.275,2.305,2.275c1.27,0,2.273-0.975,2.273-2.275
		c0-1.27-1.004-2.304-2.273-2.304C108.627,60.115,107.652,61.178,107.652,62.419L107.652,62.419z"/>
	<path class="st0" d="M122.83,79.877c-1.807-0.089-2.162-0.534-2.162-2.344v-5.609c0-2.167,1.303-2.819,1.748-2.819
		c0.947-0.009,0.918,1.737,2.635,1.737c1.48,0,1.896-1.213,1.896-1.983c0-0.71-0.445-2.308-2.459-2.308
		c-1.926,0-3.258,1.776-3.881,2.693h-0.059v-2.321h-5.6v0.701c0.889,0.119,1.6,0.267,1.6,1.75v8.723c0,1.483-0.65,1.602-1.6,1.78
		v0.702h7.881L122.83,79.877L122.83,79.877z"/>
	<path class="st0" d="M137.324,70.92v-4.307h-0.652c-0.088,0.239-0.207,0.596-0.74,0.596c-0.561,0-1.773-0.655-3.164-0.655
		c-2.732,0-4.719,1.754-4.719,4.366c0,4.57,7.053,4.392,7.053,7.122c0,0.89-0.621,1.958-2.104,1.958
		c-3.277,0-3.986-3.116-4.164-3.917h-0.828v4.878h0.74c0.295-0.583,0.473-0.815,0.797-0.815c0.268,0,2.277,0.845,3.756,0.845
		c2.752,0,4.646-1.732,4.646-4.551c0-4.867-6.934-4.185-6.934-7.211c0-0.92,0.83-1.692,1.896-1.692c1.693,0,3.055,1.276,3.676,3.383
		H137.324L137.324,70.92z"/>
	<path class="st0" d="M147.834,66.926h-2.783V61.92h-0.742c-2.014,2.873-3.348,4.176-4.916,5.513v0.806h1.539v9.6
		c0.029,0.623,0.148,3.11,3.348,3.11c2.666,0,3.732-2.043,4.354-3.318l-0.74-0.326c-0.324,0.623-0.828,1.541-1.688,1.541
		c-1.186,0-1.154-1.215-1.154-1.689v-8.918h2.783L147.834,66.926L147.834,66.926z"/>
	<path class="st0" d="M88.269,87.029c1.393,0.089,2.606,0.148,2.606,2.106v14.32c0,1.834-0.918,1.924-2.606,2.102v0.74h10.657v-0.74
		c-2.078-0.09-3.264-0.148-3.264-2.102V96.56c3.739,0,4.213,2.16,4.54,4.586h0.74v-9.995h-0.74c-0.416,2.373-0.861,4.477-4.54,4.419
		v-6.896c0-1.278,0.534-1.397,2.135-1.397c5.086,0,5.881,1.873,6.529,4.964h0.701v-5.954H88.269V87.029L88.269,87.029z"/>
	<path class="st0" d="M113.414,105.596c-1.156-0.119-1.393-0.771-1.393-1.691V92.641h-5.688v0.701
		c1.125,0.208,1.568,0.416,1.568,1.751v8.723c0,1.424-0.502,1.514-1.568,1.779v0.701h7.08L113.414,105.596L113.414,105.596z"/>
	<path class="st0" d="M107.652,88.138c0,1.271,0.945,2.275,2.305,2.275c1.27,0,2.273-0.975,2.273-2.275
		c0-1.271-1.004-2.305-2.273-2.305C108.627,85.833,107.652,86.897,107.652,88.138L107.652,88.138z"/>
	<path class="st0" d="M129.924,105.021c-1.688-0.059-1.748-0.92-1.748-1.721V86.288h-6.369v0.701
		c1.629,0.118,2.252,0.147,2.252,1.711v5.398c-0.711-0.768-1.719-1.828-3.498-1.828c-2.781,0-5.707,2.452-5.707,7.617
		c0,4.342,2.719,6.824,5.174,6.824c2.223,0,3.053-0.826,4.119-1.949v1.92c1.838-0.492,2.104-0.521,5.777-0.965L129.924,105.021
		L129.924,105.021z"/>
	<path class="st0" d="M142.479,102.584c-0.561,0.682-1.594,1.984-3.336,1.984c-2.811,0-3.463-3.02-3.551-5.535h7.447
		c-0.088-1.611-0.473-6.763-5.613-6.763c-3.404,0-6.1,2.777-6.1,7.177c0,5.062,3.021,7.26,6.012,7.26
		c2.365,0,4.049-0.951,5.85-3.707L142.479,102.584L142.479,102.584z"/>
	<path class="st0" d="M151.283,105.596c-1.156,0-1.451-0.918-1.451-1.777V86.288h-5.629v0.701c1.451,0,1.51,1.393,1.51,1.719v15.111
		c0,0.711-0.326,1.777-1.51,1.777v0.701h7.08V105.596L151.283,105.596z"/>
	<path class="st0" d="M159.498,105.596c-1.154-0.119-1.391-0.771-1.391-1.691V92.641h-5.689v0.701
		c1.127,0.208,1.57,0.416,1.57,1.751v8.723c0,1.424-0.504,1.514-1.57,1.779v0.701h7.08V105.596L159.498,105.596z"/>
	<path class="st0" d="M153.736,88.138c0,1.271,0.945,2.275,2.305,2.275c1.271,0,2.275-0.975,2.275-2.275
		c0-1.271-1.004-2.305-2.275-2.305C154.713,85.833,153.736,86.897,153.736,88.138L153.736,88.138z"/>
	<path class="st0" d="M169.248,92.645h-2.783v-5.006h-0.742c-2.014,2.873-3.348,4.177-4.916,5.513v0.806h1.539v9.601
		c0.029,0.621,0.148,3.109,3.348,3.109c2.666,0,3.732-2.043,4.355-3.318l-0.742-0.324c-0.324,0.621-0.828,1.539-1.688,1.539
		c-1.186,0-1.154-1.215-1.154-1.688v-8.919h2.783L169.248,92.645L169.248,92.645z"/>
	<path class="st0" d="M184.252,92.641h-4.455v0.701c0.736,0.03,1.623,0.03,1.623,0.978c0,0.444-0.148,0.829-0.326,1.333
		l-2.008,5.688l-2.133-5.481c-0.268-0.652-0.592-1.422-0.592-1.719c0-0.711,0.799-0.74,1.568-0.8V92.64h-7.404v0.701
		c0.74,0.119,0.889,0.119,1.244,0.8c0.178,0.355,1.066,2.192,1.719,3.792l3.553,8.74l-0.533,1.57
		c-0.207,0.65-0.947,2.428-1.953,2.428c-0.355,0-0.504-0.355-0.504-0.504c0-0.117,0.088-0.266,0.088-0.533
		c0-0.533-0.326-1.51-1.658-1.51c-1.777,0-1.955,1.51-1.955,1.926c0,0.947,0.801,2.311,2.725,2.311c2.785,0,3.406-1.689,4.887-5.629
		l4.404-11.76c0.561-1.481,1.062-1.541,1.711-1.63L184.252,92.641L184.252,92.641z"/>
	<path class="st0" d="M88.272,132.229h9.539c6.225-0.117,8.289-3.02,8.289-5.506c0-3.373-3.098-4.857-5.576-5.275v-0.061
		c1.252-0.387,4.586-1.156,4.586-4.436c0-4.611-6.023-4.73-7.684-4.73h-9.154v0.74c1.363,0.09,2.606,0.148,2.606,2.098v14.328
		c0,1.805-0.948,1.924-2.606,2.102V132.229L88.272,132.229z"/>
	<path class="st0" d="M121.529,130.33l-0.297,0.297c-0.088,0.09-0.178,0.119-0.295,0.119c-0.652,0-0.652-0.564-0.652-0.742v-7.74
		c0-2.787-2.635-4.061-5.914-4.061c-3.658,0-5.514,1.807-5.514,3.676c0,2.016,1.59,2.016,1.943,2.016
		c1.533,0,1.975-1.127,1.975-1.66c0-1.156-0.883-1.393-0.883-2.016c0-0.475,0.678-1.068,1.74-1.068c2.184,0,2.598,1.098,2.598,2.609
		v2.166c-4.186,1.275-7.947,2.461-7.947,5.545c0,2.252,1.836,3.17,3.258,3.17c0.711,0,2.775-0.146,4.689-2.072
		c0.178,0.83,0.414,2.072,2.486,2.072c1.332,0,2.428-0.711,3.256-1.688L121.529,130.33L121.529,130.33z"/>
	<path class="st0" d="M138.316,131.529c-1.453-0.061-1.453-0.98-1.453-1.691v-7.447c0-3.271-2.34-4.189-3.969-4.189
		c-2.521,0-3.795,1.773-4.211,2.486h-0.059v-2.115h-5.658v0.703c1.184,0.178,1.568,0.414,1.568,1.75v8.723
		c0,1.453-0.502,1.572-1.568,1.781v0.701h7.141v-0.701c-1.365-0.15-1.453-1.01-1.453-1.691v-7.934c0-0.268,1.275-1.723,2.461-1.723
		c1.602,0,1.631,1.635,1.631,2.467v7.188c0,1.098-0.416,1.604-1.395,1.693v0.701h6.965L138.316,131.529L138.316,131.529z"/>
	<path class="st0" d="M154.002,118.576h-6.338v0.695c1.42,0.207,1.746,0.266,1.746,0.857c0,0.238-0.355,0.801-0.621,1.066
		l-3.791,3.789v-12.766h-5.541v0.703c1.422,0,1.422,1.391,1.422,1.717v15.113c0,0.711-0.236,1.777-1.422,1.777v0.701h7.08v-0.701
		c-1.42-0.209-1.539-0.475-1.539-1.777v-3.375l0.682-0.711l2.812,3.967c0.326,0.445,0.711,1.008,0.711,1.332
		c0,0.475-0.828,0.564-1.244,0.564v0.701h6.932v-0.701c-0.238,0-0.445-0.031-0.74-0.445l-5.746-7.936
		c0.77-0.916,2.369-2.338,3.021-2.871c0.828-0.68,1.391-0.799,2.576-1.006V118.576L154.002,118.576z"/>
	<polygon class="st0" points="48.68,92.178 45.375,99.539 54.648,99.539 51.241,107.131 41.967,107.131 34.964,122.732 
		26.634,122.732 43.797,84.497 61.401,84.497 57.953,92.178 	"/>
	<path class="st0" d="M124.059,95.762c0-0.03-0.652-1.841-2.312-1.841c-2.104,0-2.518,2.673-2.518,5.554
		c0,1.723,0,5.584,2.369,5.584c1.365,0,2.461-1.752,2.461-2.078L124.059,95.762L124.059,95.762z"/>
	<path class="st0" d="M139.408,97.926c-0.029-0.92-0.029-2.463-0.266-3.354c-0.178-0.653-0.562-1.395-1.598-1.395
		c-1.096,0-2.102,0.653-2.102,4.749L139.408,97.926L139.408,97.926z"/>
	<path class="st0" d="M95.617,129.477c0,1.332,0.532,1.805,1.773,1.805c3.25,0,3.635-2.635,3.635-4.439
		c0-4.232-2.602-4.676-4.519-4.766h-0.889L95.617,129.477L95.617,129.477z"/>
	<path class="st0" d="M95.617,121.176c3.973,0,4.623-1.238,4.623-4.248c0-2.064-0.65-3.805-3.057-3.805
		c-1.507,0-1.537,0.768-1.566,1.445V121.176L95.617,121.176z"/>
	<path class="st0" d="M116.201,124.963c-0.678,0.148-3.594,1.008-3.594,3.588c0,0.92,0.441,1.988,1.502,1.988
		c1.002,0,1.678-0.801,2.092-1.275V124.963L116.201,124.963z"/>
</g>
</svg>
