<?xml version="1.0" encoding="utf-8"?>
<!-- Generator: Adobe Illustrator 19.2.1, SVG Export Plug-In . SVG Version: 6.00 Build 0)  -->
<svg version="1.1"
	 id="svg3077" inkscape:version="0.48.5 r10040" sodipodi:docname="A.svg" xmlns:cc="http://creativecommons.org/ns#" xmlns:dc="http://purl.org/dc/elements/1.1/" xmlns:inkscape="http://www.inkscape.org/namespaces/inkscape" xmlns:rdf="http://www.w3.org/1999/02/22-rdf-syntax-ns#" xmlns:sodipodi="http://sodipodi.sourceforge.net/DTD/sodipodi-0.dtd" xmlns:svg="http://www.w3.org/2000/svg"
	 xmlns="http://www.w3.org/2000/svg" xmlns:xlink="http://www.w3.org/1999/xlink" x="0px" y="0px" viewBox="0 0 1000 586.172"
	 style="enable-background:new 0 0 1000 586.172;" xml:space="preserve">
<style type="text/css">
	.st0{fill:#29AAE2;}
</style>
<g id="g3154">
	<g id="g3312" transform="translate(60.8369,46.9862)">
		<path id="path3314" inkscape:connector-curvature="0" class="st0" d="M31.081,443.979c-3.677-15.417-13.01-26.675-31.302-26.675
			c-26.889,0-38.148,25.352-38.148,51.091c0,25.753,11.258,51.118,38.148,51.118c19.522,0,30.245-15.577,32.01-35.139h21.447
			c-1.765,32.157-23.038,54.313-53.457,54.313c-37.613,0-60.116-31.943-60.116-70.292c0-38.335,22.503-70.278,60.116-70.278
			c28.307,0.201,50.636,16.928,53.284,45.863H31.081z"/>
	</g>
	<g id="g3316" transform="translate(63.4531,47.4081)">
		<path id="path3318" inkscape:connector-curvature="0" class="st0" d="M63.446,437.916h18.8v18.786h0.374
			c2.273-10.336,14.227-21.434,26.542-21.434c4.573,0,5.803,0.388,7.555,0.575v20.685c-2.821-0.374-5.803-0.949-8.624-0.949
			c-13.705,0-24.616,11.847-24.616,33.254v46.237h-20.03V437.916z"/>
	</g>
	<g id="g3320" transform="translate(72.4204,44.4153)">
		<path id="path3322" inkscape:connector-curvature="0" class="st0" d="M174.381,480.926c-0.709-13.518-9.32-25.739-22.865-25.739
			c-13.879,0-23.373,11.258-23.894,25.739H174.381z M127.623,495.032c0,15.216,7.728,28.748,24.429,28.748
			c11.606,0,18.639-5.442,22.156-16.166h18.974c-4.386,21.247-21.26,33.08-41.129,33.08c-28.48,0-44.472-21.233-44.472-51.104
			c0-27.638,16.874-51.318,43.937-51.318c28.654,0,46.237,27.625,42.894,56.76C194.411,495.032,127.623,495.032,127.623,495.032z"/>
	</g>
	<g id="g3324" transform="translate(77.7849,41.2099)">
		<path id="path3326" inkscape:connector-curvature="0" class="st0" d="M240.746,526.991c17.931,0,25.499-17.463,25.499-34.39
			c0-21.434-9.681-34.203-25.151-34.203c-18.813,0-25.499,17.85-25.499,35.326C215.595,510.451,223.337,526.991,240.746,526.991
			 M285.566,541.271h-18.974v-13.157h-0.348c-5.282,11.085-16.7,15.791-28.133,15.791c-28.668,0-42.547-22.744-42.547-51.866
			c0-35.153,19.508-50.569,39.378-50.569c11.419,0,24.081,4.506,30.232,15.216h0.361v-49.593h20.03
			C285.566,407.092,285.566,541.271,285.566,541.271z"/>
	</g>
	<path id="path3328" inkscape:connector-curvature="0" class="st0" d="M381.296,485.325h20.03v97.154h-20.03V485.325z
		 M381.296,448.301h20.03v20.297h-20.03V448.301z"/>
	<g id="g3330" transform="translate(84.5956,47.4081)">
		<path id="path3332" inkscape:connector-curvature="0" class="st0" d="M325.001,437.916h15.123V408.78h20.03v29.136h18.118v15.965
			h-18.118v51.866c0,8.838,0.709,13.344,9.681,13.344c2.808,0,5.629,0,8.437-0.749v16.54c-4.386,0.374-8.624,1.123-13.01,1.123
			c-20.912,0-24.79-8.651-25.138-24.803v-57.322h-15.123V437.916z"/>
	</g>
	<g id="g3334" transform="translate(92.4319,50.1773)">
		<path id="path3336" inkscape:connector-curvature="0" class="st0" d="M421.945,398.119h21.969V476.3
			c0,18.038,1.056,38.896,29.55,38.896c28.48,0,29.523-20.859,29.523-38.896V398.12h21.982v85.896
			c0,34.377-20.578,51.479-51.505,51.479c-30.954,0-51.519-17.102-51.519-51.479V398.119z"/>
	</g>
	<g id="g3338" transform="translate(101.3594,47.4081)">
		<path id="path3340" inkscape:connector-curvature="0" class="st0" d="M532.387,437.916h18.987v14.28l0.348,0.374
			c5.99-10.71,16.353-17.302,28.32-17.302c19.682,0,32.157,11.285,32.157,33.08v66.722h-20.03v-61.079
			c-0.361-15.216-5.99-21.795-17.77-21.795c-13.358,0-21.982,11.258-21.982,25.552v57.322h-20.03V437.916z"/>
	</g>
	<path id="path3342" inkscape:connector-curvature="0" class="st0" d="M730.789,485.325h20.03v97.154h-20.03V485.325z
		 M730.789,448.301h20.03v20.297h-20.03V448.301z"/>
	<g id="g3344" transform="translate(116.3348,43.7816)">
		<path id="path3346" inkscape:connector-curvature="0" class="st0" d="M717.649,490.032c0-16.741-7.916-34.217-25.833-34.217
			c-17.931,0-25.846,17.476-25.846,34.217c0,16.914,7.916,34.39,25.846,34.39C709.733,524.423,717.649,506.947,717.649,490.032
			 M645.927,490.032c0-29.697,16.7-51.131,45.889-51.131c29.176,0,45.876,21.434,45.876,51.131
			c0,29.884-16.701,51.291-45.876,51.291C662.627,541.324,645.927,519.917,645.927,490.032"/>
	</g>
	<g id="g3348" transform="translate(118.6231,47.4081)">
		<path id="path3350" inkscape:connector-curvature="0" class="st0" d="M745.958,437.916h18.987v14.28l0.348,0.374
			c5.977-10.71,16.339-17.302,28.293-17.302c19.709,0,32.198,11.285,32.198,33.08v66.722h-20.057v-61.079
			c-0.348-15.216-5.977-21.795-17.757-21.795c-13.358,0-21.969,11.258-21.969,25.552v57.322h-20.043V437.916z"/>
	</g>
	<g id="g3352" transform="translate(54.2287,68.7925)">
		<path id="path3354" inkscape:connector-curvature="0" class="st0" d="M-50.669,130.599H55.056v30.767H-9.487v37.145h60.009v30.74
			H-9.487v60.638h-41.183V130.599z"/>
	</g>
	<g id="g3356" transform="translate(62.9363,68.7925)">
		<path id="path3358" inkscape:connector-curvature="0" class="st0" d="M57.053,130.599h112.156v30.54H98.022v33.174h67.042v30.526
			H98.022v34.056h72.832v30.994H57.053V130.599z"/>
	</g>
	<g id="g3360" transform="translate(75.5493,59.1802)">
		<path id="path3362" inkscape:connector-curvature="0" class="st0" d="M213.089,268.738h17.797
			c27.518-0.227,45.101-12.823,45.101-49.994c0-48.443-33.922-48.443-46.558-48.443l-16.339-0.227V268.738z M170.663,139.761h63.125
			c17.784,0,41.383,1.992,56.894,13.277c22.142,16.152,28.146,42.48,28.146,66.16c0,35.38-10.55,61.48-40.768,74.102
			c-15.31,6.191-33.521,6.191-43.87,6.191h-63.526C170.663,299.492,170.663,139.761,170.663,139.761z"/>
	</g>
	<g id="g3364" transform="translate(84.2305,68.7925)">
		<path id="path3366" inkscape:connector-curvature="0" class="st0" d="M320.485,130.599h112.156v30.54h-71.174v33.174h67.042
			v30.526h-67.042v34.056h72.846v30.994H320.485V130.599z"/>
	</g>
	<g id="g3368" transform="translate(96.674,63.6967)">
		<path id="path3370" inkscape:connector-curvature="0" class="st0" d="M474.424,203.831h15.524c9.106,0,13.652,0,17.168-1.324
			c9.106-3.102,10.978-13.05,10.978-18.145c0-19.682-16.152-19.682-28.146-19.682h-15.524V203.831z M432.827,135.251h69.115
			c26.903,0,37.051,1.778,45.956,11.499c4.546,4.867,10.336,13.732,10.336,30.981c0,17.476-6.619,24.991-13.665,29.644
			c-9.507,6.405-18.626,7.515-22.758,8.183v0.869c28.975,0.896,30.633,14.615,33.936,39.164c1.457,10.844,3.517,28.093,7.047,39.391
			H517.88c-2.487-9.747-3.53-21.915-4.961-36.075c-1.872-19.241-2.487-26.328-21.113-26.328h-17.382v62.403h-41.597V135.251z"/>
	</g>
	<g id="g3372" transform="translate(111.1132,61.4805)">
		<path id="path3374" inkscape:connector-curvature="0" class="st0" d="M653.052,235.681l-19.254-67.002h-0.615l-20.698,67.002
			H653.052z M610.211,137.47h50.503l58.966,159.731h-46.772l-10.349-32.091h-59.795l-10.135,32.091h-41.397L610.211,137.47z"/>
	</g>
	<g id="g3376" transform="translate(116.422,68.8257)">
		<path id="path3378" inkscape:connector-curvature="0" class="st0" d="M718.728,130.122h41.999v128.309h67.056v31.422H718.728
			V130.122z"/>
	</g>
	<g id="g3380" transform="translate(54.2283,82.0379)">
		<path id="path3382" inkscape:connector-curvature="0" class="st0" d="M-50.674-59.751H6.447L56.936,59.265L56.521-59.751H92.73
			V99.953H36.853L-14.666-24.131l0.415,124.083h-36.423L-50.674-59.751z"/>
	</g>
	<g id="g3384" transform="translate(73.3994,74.6923)">
		<path id="path3386" inkscape:connector-curvature="0" class="st0" d="M186.493,45.813l-19.254-67.029h-0.628l-20.672,67.029
			H186.493z M143.652-52.411h50.489l58.98,159.717h-46.772l-10.349-32.077h-59.809l-10.135,32.077h-41.37
			C84.685,107.306,143.652-52.411,143.652-52.411z"/>
	</g>
	<g id="g3388" transform="translate(76.0688,82.0379)">
		<path id="path3390" inkscape:connector-curvature="0" class="st0" d="M219.516-59.751h45.716l33.949,115.7l35.794-115.7h41.183
			L321.724,99.953h-49.433L219.516-59.751z"/>
	</g>
	<g id="g3392" transform="translate(91.2579,82.0379)">
		<path id="path3394" inkscape:connector-curvature="0" class="st0" d="M407.421-59.751l32.692,67.029l33.722-67.029h42.627
			L458.124,43.554v56.399h-41.825V41.548L359.406-59.751H407.421z"/>
	</g>
	<path id="path3396" inkscape:connector-curvature="0" class="st0" d="M944.164,377.207H3.55v41.985h940.614V377.207z"/>
	<g id="g3398" transform="translate(113.7443,71.5543)">
		<path id="path3400" inkscape:connector-curvature="0" class="st0" d="M685.602,90.909h-2.781
			c6.485-7.367,11.887-16.152,15.978-25.926h9.173C702.262,75.051,694.641,83.849,685.602,90.909 M677.111,96.793L677.111,96.793
			l-0.027,0.013C677.084,96.806,677.084,96.793,677.111,96.793 M587.044,96.793L587.044,96.793v0.013
			C587.044,96.793,587.044,96.793,587.044,96.793 M556.17,64.983h9.159c4.078,9.774,9.52,18.559,16.019,25.926h-2.795
			C569.501,83.849,561.866,75.051,556.17,64.983 M578.513-46.559h2.848c-4.84,5.482-9.146,11.74-12.729,18.719h-0.067l-1.257,2.647
			l-1.257,2.647l0.08,0.027c-0.281,0.628-0.575,1.257-0.829,1.885h-9.132c1.538-2.688,3.156-5.335,4.947-7.862
			C566.091-35.407,571.961-41.464,578.513-46.559 M677.111-52.442L677.111-52.442h-0.027H677.111 M707.971-20.632h-9.173
			c-4.092-9.801-9.493-18.559-15.978-25.926h2.781C694.641-39.485,702.262-30.687,707.971-20.632 M707.183,25.11h11.98
			c-0.401,12.101-3.276,23.627-8.156,34.003h-9.935C704.749,48.643,706.875,37.144,707.183,25.11 M672.124,59.113
			c2.046-10.416,3.236-21.902,3.396-34.003h25.779c-0.321,12.101-2.594,23.613-6.445,34.003
			C694.854,59.113,672.124,59.113,672.124,59.113z M658.445,96.793h9.654c-5.201,3.985-10.804,7.113-16.767,9.293
			C653.832,103.478,656.212,100.349,658.445,96.793 M605.696,96.793c2.206,3.557,4.586,6.686,7.127,9.293
			c-5.95-2.179-11.606-5.308-16.767-9.293C596.056,96.793,605.696,96.793,605.696,96.793z M562.829,25.11h25.793
			c0.16,12.101,1.364,23.587,3.41,34.003h-22.744C565.423,48.724,563.163,37.211,562.829,25.11 M556.959,19.24h-11.94
			c0.361-11.887,3.142-23.399,8.116-33.989h9.921C559.325-4.065,557.28,7.474,556.959,19.24 M592.085-14.749
			c-2.099,10.67-3.289,22.223-3.463,33.989h-25.766c0.321-11.82,2.514-23.373,6.431-33.989H592.085z M658.445-52.442
			c-2.233-3.557-4.613-6.686-7.113-9.293c5.964,2.179,11.566,5.322,16.767,9.293H658.445z M634.992,19.24v-33.989h31.021
			c2.166,10.443,3.423,21.955,3.61,33.989C669.623,19.24,634.992,19.24,634.992,19.24z M634.992,59.113V25.11h34.631
			c-0.187,12.034-1.444,23.587-3.61,34.003H634.992z M634.992,90.909V64.983h29.67c-2.487,10.015-5.803,18.826-9.707,25.926
			C654.955,90.909,634.992,90.909,634.992,90.909z M634.992,96.793h16.313c-4.854,6.913-10.416,11.325-16.313,12.435V96.793z
			 M629.122,96.793v12.435c-5.87-1.11-11.432-5.522-16.299-12.435H629.122z M629.122,64.983v25.926h-19.936
			c-3.891-7.1-7.22-15.912-9.734-25.926C599.452,64.983,629.122,64.983,629.122,64.983z M629.122,25.11v34.003h-30.994
			c-2.166-10.416-3.45-21.969-3.61-34.003C594.518,25.11,629.122,25.11,629.122,25.11z M629.122-14.749V19.24h-34.604
			c0.16-11.793,1.391-23.346,3.57-33.989C598.088-14.749,629.122-14.749,629.122-14.749z M654.955-46.559
			c3.904,7.113,7.22,15.925,9.707,25.926h-29.67v-25.926C634.992-46.559,654.955-46.559,654.955-46.559z M634.992-52.442v-12.435
			c5.897,1.11,11.459,5.509,16.313,12.435H634.992z M629.122-64.85v12.408H612.77C617.77-59.421,623.346-63.767,629.122-64.85
			 M605.723-52.442h-9.493c5.134-3.918,10.67-7.006,16.473-9.159C610.229-59.047,607.902-55.972,605.723-52.442 M599.933-22.731
			c2.447-9.306,5.589-17.302,9.186-23.827h20.003v25.926h-29.724C599.586-21.341,599.733-22.063,599.933-22.731 M701.299,19.24
			H675.52c-0.16-12.114-1.35-23.573-3.396-33.989h22.731C698.705-4.373,700.978,7.126,701.299,19.24 M719.163,19.24h-11.98
			c-0.308-12.034-2.434-23.52-6.111-33.989h9.935C715.887-4.373,718.762,7.126,719.163,19.24 M692.434-20.632h-21.608
			c-2.3-9.814-5.389-18.572-9.106-25.926h13.023C681.911-39.485,687.955-30.674,692.434-20.632 M572.616-22.691
			c4.439-9.32,10.175-17.342,16.848-23.867h13.023c-2.848,5.629-5.348,12.181-7.448,19.508l-0.027-0.013l-0.762,2.821l-0.749,2.848
			h0.067c-0.067,0.267-0.147,0.508-0.201,0.762h-21.674C572.001-21.314,572.295-22.009,572.616-22.691 M544.992,25.11h11.954
			c0.321,12.034,2.46,23.533,6.111,34.003h-9.921C548.268,48.737,545.379,37.211,544.992,25.11 M571.68,64.983h21.608
			c2.313,9.814,5.415,18.586,9.146,25.926h-13.077C582.243,83.836,576.2,75.051,571.68,64.983 M674.744,90.909h-13.023
			c3.717-7.341,6.806-16.112,9.106-25.926h21.608C687.955,75.051,681.911,83.836,674.744,90.909 M725.1,22.169
			c0-48.51-37.319-88.45-84.773-92.648c-2.714-0.374-5.455-0.575-8.263-0.575c-2.621,0-5.215,0.214-7.782,0.548
			c-26.047,2.206-50.168,15.377-66.16,36.262l-0.053-0.067l-1.725,2.38l-1.698,2.393l0.08,0.08
			c-10.229,15.31-15.698,33.08-15.698,51.626c0,48.524,37.332,88.476,84.786,92.661c2.714,0.374,5.469,0.575,8.25,0.575
			c2.808,0,5.549-0.201,8.263-0.575C687.781,110.645,725.1,70.692,725.1,22.169"/>
	</g>
	<g id="g3402" transform="translate(126.7405,54.1619)">
		<path id="path3404" inkscape:connector-curvature="0" class="st0" d="M846.378,340.857h2.902c3.289,0,6.097-1.203,6.097-4.292
			c0-2.193-1.618-4.412-6.097-4.412c-1.31,0-2.206,0.107-2.902,0.201V340.857z M846.378,354.749h-4.011v-25.084
			c2.113-0.308,4.105-0.602,7.1-0.602c3.797,0,6.298,0.802,7.809,1.899c1.498,1.096,2.286,2.808,2.286,5.201
			c0,3.289-2.193,5.295-4.894,6.084v0.214c2.193,0.388,3.69,2.38,4.198,6.084c0.602,3.904,1.203,5.402,1.605,6.204h-4.185
			c-0.628-0.802-1.217-3.102-1.711-6.391c-0.602-3.209-2.206-4.399-5.402-4.399h-2.795V354.749z M850.577,322.672
			c-9.895,0-17.997,8.491-17.997,18.987c0,10.697,8.103,19.081,18.091,19.081c9.988,0.094,17.997-8.384,17.997-18.974
			c0-10.603-8.009-19.094-17.997-19.094C850.671,322.672,850.577,322.672,850.577,322.672z M850.671,319.169
			c12.301,0,22.089,9.988,22.089,22.49c0,12.689-9.788,22.584-22.183,22.584c-12.288,0-22.29-9.895-22.29-22.584
			c0-12.502,10.002-22.49,22.29-22.49C850.577,319.169,850.671,319.169,850.671,319.169z"/>
	</g>
</g>
</svg>
