<?xml version="1.0" encoding="utf-8"?>
<!-- Generator: Adobe Illustrator 19.2.1, SVG Export Plug-In . SVG Version: 6.00 Build 0)  -->
<svg version="1.1"
	 id="svg2" inkscape:export-filename="C:\Documents and Settings\Tempaccount\Desktop\PNC_Bank__orange_version_.eps(converted)-page1.png" inkscape:export-xdpi="90" inkscape:export-ydpi="90" inkscape:version="0.44.1" sodipodi:docbase="C:\Documents and Settings\Tempaccount\Desktop" sodipodi:docname="PNC_Bank__orange_version_.eps(converted)-page1.svg" sodipodi:version="0.32" xmlns:cc="http://web.resource.org/cc/" xmlns:dc="http://purl.org/dc/elements/1.1/" xmlns:inkscape="http://www.inkscape.org/namespaces/inkscape" xmlns:rdf="http://www.w3.org/1999/02/22-rdf-syntax-ns#" xmlns:sodipodi="http://sodipodi.sourceforge.net/DTD/sodipodi-0.dtd" xmlns:svg="http://www.w3.org/2000/svg"
	 xmlns="http://www.w3.org/2000/svg" xmlns:xlink="http://www.w3.org/1999/xlink" x="0px" y="0px" viewBox="0 0 205.25 63.75"
	 style="enable-background:new 0 0 205.25 63.75;" xml:space="preserve">
<style type="text/css">
	.st0{fill:#29AAE2;}
</style>
<sodipodi:namedview  bordercolor="#666666" borderopacity="1.0" gridtolerance="10.0" guidetolerance="10.0" height="63.75px" id="base" inkscape:current-layer="svg2" inkscape:cx="97.183096" inkscape:cy="26.498794" inkscape:pageopacity="0" inkscape:pageshadow="2" inkscape:window-height="573" inkscape:window-width="853" inkscape:window-x="66" inkscape:window-y="87" inkscape:zoom="3.3210811" objecttolerance="10.0" pagecolor="white" width="205.25px">
	</sodipodi:namedview>
<g id="g4" transform="translate(7.226563,4.887044)">
	<path id="path6" class="st0" d="M38.048,28.983c-2.385,0-5.725,0-5.725,0c0.238-0.596,0.12-1.43-0.357-2.385l-3.221-5.366
		l-5.367-9.424c0,0-2.027-3.816-5.009-6.082C20.277,6.441,44.37,20.515,44.37,20.515C48.307,22.9,51.765,28.863,38.048,28.983z
		 M19.919,44.131c-3.936,2.266-10.974,2.266-4.175-9.66c1.192-2.029,2.862-5.01,2.862-5.01c0.478,0.596,1.193,0.953,2.267,0.953
		h6.321h10.854c0,0,4.295,0.119,7.754-1.311C44.251,30.295,19.919,44.131,19.919,44.131z M11.689,11.211
		c0-4.531,3.578-10.615,10.496,1.193c1.192,2.148,2.862,5.01,2.862,5.01c-0.716,0.118-1.313,0.597-1.908,1.551l-3.102,5.486
		l-5.486,9.303c0,0-2.267,3.697-2.743,7.516C11.569,39.121,11.689,11.211,11.689,11.211z M25.405,0C11.331,0,0,11.331,0,25.405
		C0,39.479,11.331,50.93,25.405,50.93c14.075,0,25.525-11.451,25.525-25.524C50.931,11.331,39.48,0,25.405,0z"/>
</g>
<g id="g8" transform="translate(69.48726,10.37337)">
	<path id="path10" class="st0" d="M7.515,40.314h6.44V22.424h3.459c9.064,0,21.112-0.717,21.112-11.093
		C38.526,0.835,27.195,0,18.13,0H0v1.073C6.441,1.789,7.515,2.744,7.515,6.44V40.314z M13.955,6.44c0-3.578,0.357-4.055,6.441-4.055
		c6.679,0,10.733,2.981,10.733,8.945c0,7.753-6.917,8.826-13.954,8.826h-3.221V6.44z"/>
</g>
<g id="g12" transform="translate(107.4166,10.37337)">
	<path id="path14" class="st0" d="M7.515,7.156c0-4.89-1.074-5.247-7.515-6.083V0h15.028l23.497,32.801h0.119V0h3.937v40.314h-5.726
		L11.569,5.249H11.45v35.065H7.515V7.156z"/>
</g>
<g id="g16" transform="translate(156.4376,9.777668)">
	<path id="path18" class="st0" d="M35.783,39.836c-3.578,0.955-7.037,1.67-14.075,1.67C7.634,41.506,0,31.607,0,19.44
		C0,8.587,4.533,0,19.919,0C31.25,0,35.306,4.77,35.783,8.825h-7.276c-0.357-1.908-1.67-6.083-9.065-6.083
		c-7.991,0-12.165,5.965-12.165,15.148c0,8.469,2.146,20.992,18.606,20.992c4.413,0,9.065-1.313,9.9-1.551V39.836z"/>
</g>
<g id="g20" transform="translate(52.74116,51.37631)">
	<path id="path22" class="st0" d="M0.427,1.578h0.438c0.457,0,0.747-0.25,0.747-0.629c0-0.427-0.311-0.614-0.762-0.62
		c-0.207,0-0.354,0.02-0.423,0.04V1.578z M0,0.07C0.216,0.025,0.525,0,0.82,0c0.457,0,0.751,0.084,0.958,0.271
		c0.167,0.147,0.261,0.373,0.261,0.628c0,0.439-0.275,0.729-0.624,0.847v0.015C1.67,1.849,1.822,2.085,1.9,2.429
		C2.009,2.891,2.088,3.21,2.157,3.338H1.714C1.659,3.24,1.587,2.959,1.493,2.547C1.395,2.089,1.217,1.918,0.829,1.902H0.427v1.436H0
		V0.07z"/>
</g>
<g id="g24" transform="translate(50.96586,50.31571)">
	<path id="path26" class="st0" d="M0.41,2.748c0.003,1.293,1.049,2.337,2.339,2.339c1.293-0.002,2.335-1.046,2.339-2.339
		C5.084,1.457,4.042,0.414,2.749,0.411C1.459,0.414,0.413,1.457,0.41,2.748z M0,2.748C0,1.231,1.23,0,2.749,0
		c1.518,0,2.752,1.23,2.752,2.748c0,1.52-1.233,2.753-2.752,2.753C1.23,5.501,0,4.269,0,2.748z"/>
</g>
</svg>
