<?xml version="1.0" encoding="utf-8"?>
<!-- Generator: Adobe Illustrator 19.2.1, SVG Export Plug-In . SVG Version: 6.00 Build 0)  -->
<svg version="1.1" id="svg4405" xmlns:svg="http://www.w3.org/2000/svg"
	 xmlns="http://www.w3.org/2000/svg" xmlns:xlink="http://www.w3.org/1999/xlink" x="0px" y="0px" viewBox="0 0 1024 604"
	 style="enable-background:new 0 0 1024 604;" xml:space="preserve">
<style type="text/css">
	.st0{fill:#FFFFFF;}
	.st1{clip-path:url(#SVGID_2_);}
	.st2{clip-path:url(#SVGID_4_);}
	.st3{clip-path:url(#SVGID_6_);}
	.st4{clip-path:url(#SVGID_8_);}
	.st5{clip-path:url(#SVGID_10_);}
	.st6{clip-path:url(#SVGID_12_);}
	.st7{clip-path:url(#SVGID_14_);}
	.st8{clip-path:url(#SVGID_16_);}
	.st9{clip-path:url(#SVGID_18_);}
	.st10{clip-path:url(#SVGID_20_);}
	.st11{clip-path:url(#SVGID_22_);}
	.st12{clip-path:url(#SVGID_24_);}
	.st13{clip-path:url(#SVGID_26_);}
	.st14{clip-path:url(#SVGID_28_);}
	.st15{clip-path:url(#SVGID_30_);}
	.st16{clip-path:url(#SVGID_32_);}
</style>
<path id="path2466" class="st0" d="M80.931,400.659c-44.291,0-66.053,23.823-65.919,54.12c0.174,31.887,21.505,43.953,54.12,52.068
	c34.103,8.495,46.949,13.707,47.195,32.062c0.144,14.743-9.962,31.918-40.013,31.549c-20.232-0.287-32.103-7.264-40.013-17.185
	c-2.883-3.827-4.412-8.649-5.13-13.081c-0.759-4.73-0.77-9.141-1.026-14.107H16.295v43.604c9.993,7.418,35.663,15.133,60.276,15.133
	c44.948,0,64.924-23.597,67.714-49.503c1.929-17.944,0.133-32.821-11.799-44.886c-8.936-8.782-23.474-14.22-50.786-20.263
	c-32.708-7.131-38.741-14.405-38.474-30.01c0.277-15.595,15.236-24.675,33.857-25.393c13.317-0.585,23.833,1.129,34.883,8.721
	c3.345,2.288,6.34,7.079,7.438,12.568c0.975,4.545,1.098,10.167,1.282,14.107h12.825v-38.731
	C121.745,405.737,107.535,400.659,80.931,400.659z M399.24,403.737v46.425h-34.114v8.464h3.334c9.634,0,10.773,2.657,10.773,8.977
	v81.052l-54.89-98.494h-86.439v8.464h3.334c9.726,0,10.773,1.683,10.773,7.951v69.51c0,15.564-2.124,38.331-29.497,37.448
	c-24.408-0.688-25.649-18.929-25.649-35.14v-71.818c0-6.269,3.94-7.951,13.594-7.951v-8.464h-59.25v8.464
	c9.644,0,13.594,1.683,13.594,7.951v67.458c0,18.632,3.735,31.015,11.029,38.731c12.302,12.199,32.452,12.055,41.809,12.055
	c44.599,0,46.938-31.785,46.938-58.994v-67.201c0,1.929,0.636,0,10.26,0h7.695c9.623,0,10.26,1.683,10.26,7.951v97.724
	c0,6.166-1.129,8.721-10.773,8.721h-3.334v8.208h41.039v-8.208h-3.334c-9.644,0-10.773-2.555-10.773-8.721v-82.078l55.403,99.007
	h31.036V467.604c0-6.258,1.057-8.977,10.773-8.977h9.49v-14.62c0-12.476,0.841-26.932,19.237-26.932h20.52v140.559
	c0,11.809-2.626,15.39-16.159,15.39h-4.617v8.208h78.487v-8.208h-4.36c-13.656,0-16.672-3.581-16.672-15.39V417.074h20.52
	c18.109,0,18.981,14.456,18.981,26.932v14.62h12.825c9.819,0,10.516,2.206,10.516,8.464v97.468c0,6.238-4.155,8.464-14.107,8.464
	v8.208h60.789v-8.208c-9.86,0-14.107-2.226-14.107-8.464V460.422h15.903c12.63,0,22.058,4.545,22.058,23.854
	c0,12.127-4.843,25.906-22.315,25.906h-9.747c0,0,24.121,48.508,28.471,57.455c5.633,11.245,12.589,13.594,26.419,13.594h23.854
	v-8.208c-3.334,0-9.911-0.564-13.594-6.412l-28.471-49.503c15.923-3.334,27.445-15.564,27.445-33.088
	c0-32.195-32.093-33.857-53.094-33.857h-59.763v-46.425H399.24z M838.102,446.315c-30.219,1.985-44.524,20.59-44.63,41.039
	c-0.123,23.372,11.46,34.124,40.013,40.783c28.697,6.535,36.679,9.111,36.935,24.11c0.154,10.455-9.316,21.915-30.01,21.546
	c-16.313-0.277-25.095-6.31-29.753-11.799c-2.452-2.904-3.447-6.022-4.104-9.49c-0.718-4.484-0.605-7.818-0.769-11.542h-11.799
	v32.318c7.623,5.479,27.394,11.542,46.169,11.542c34.124,0,50.919-18.478,52.838-40.013c1.262-13.399-1.642-24.88-9.49-33.088
	c-7.469-7.623-16.477-10.629-38.731-15.133c-24.634-5.048-29.589-9.203-29.497-21.033c0-12.26,14.159-17.801,24.88-18.211
	c7.941-0.339,19.637-0.174,28.471,7.182c3.057,2.565,4.094,6.094,4.36,9.747c0.41,3.878,0.636,7.674,0.77,10.773h11.542v-30.523
	c-9.593-4.545-20.253-7.982-40.783-8.208C842.357,446.294,840.116,446.182,838.102,446.315z M661.121,450.162v8.464
	c9.665,0,13.594,1.683,13.594,7.951v67.458c0,18.632,3.642,31.015,11.286,38.731c12.055,12.199,32.103,12.055,41.552,12.055
	c44.866,0,47.195-31.631,47.195-50.786v-66.945c0-6.269,1.078-8.464,10.516-8.464h3.334v-8.464h-40.783v8.464h3.334
	c9.654,0,10.773,2.195,10.773,8.464v68.997c0,15.564-2.124,38.33-29.497,37.448c-24.398-0.688-25.65-18.929-25.649-35.14v-71.818
	c0-6.269,3.981-7.951,13.594-7.951v-8.464H661.121z M895.557,450.162v34.883h11.286c0.154-6.269,0.113-15.205,2.565-18.724
	c2.237-3.273,4.986-4.874,11.799-4.873h12.825v101.059c0,6.228-2.585,10.516-12.568,10.516h-4.36v8.208h65.663v-8.208h-4.36
	c-9.962,0-12.312-4.289-12.312-10.516V461.448h12.825c6.72,0,9.562,1.601,11.799,4.873c2.483,3.519,2.421,12.455,2.565,18.724
	h11.542v-34.883H895.557z"/>
<g>
	<defs>
		<path id="SVGID_1_" d="M138.273,231.793l-2.821,7.838c-2.421,6.576-2.76,18.303-0.954,24.542l14.507,75.019
			c1.128,6.505,3.191,9.213,5.376,8.834c2.36-0.606,2.103-5.551,0.718-16.846l-10.957-99.438
			C143.382,225.514,140.643,225.391,138.273,231.793"/>
	</defs>
	<use xlink:href="#SVGID_1_"  style="overflow:visible;fill:#FFFFFF;"/>
	<clipPath id="SVGID_2_">
		<use xlink:href="#SVGID_1_"  style="overflow:visible;"/>
	</clipPath>
	<g id="g2478" transform="matrix(1.25,0,0,-1.25,-577.43743,889.95394)" class="st1">
		<g id="g2484">
			<g id="g2486">
				<g id="g2492">
					<g id="g2494">
						<path id="path2502" class="st0" d="M568.103,531.65h19.239v-98.42h-19.239V531.65z"/>
					</g>
				</g>
			</g>
		</g>
	</g>
</g>
<g>
	<defs>
		<path id="SVGID_3_" d="M169.032,310.578c0.267,6.474,0.975,14.251-1.262,14.785c-2.031,0.441-3.293-2.103-4.371-10.434
			l-4.709-44.291c-0.852-6.362,0.256-19.812,2.616-24.511c2.401-4.709,4.606-3.499,4.863,2.811L169.032,310.578z"/>
	</defs>
	<use xlink:href="#SVGID_3_"  style="overflow:visible;fill:#FFFFFF;"/>
	<clipPath id="SVGID_4_">
		<use xlink:href="#SVGID_3_"  style="overflow:visible;"/>
	</clipPath>
	<g id="g2506" transform="matrix(1.25,0,0,-1.25,-577.43743,889.95394)" class="st2">
		<g id="g2512">
			<g id="g2514">
				<g id="g2520">
					<g id="g2522">
						<path id="path2530" class="st0" d="M588.221,518.83h9.726v-67.509h-9.726V518.83z"/>
					</g>
				</g>
			</g>
		</g>
	</g>
</g>
<g>
	<defs>
		<path id="SVGID_5_" d="M188.741,161.555l-5.643,129.047c-0.103,5.868-0.493,13.348-2.657,12.845
			c-1.231-0.287-2.698-3.704-2.832-9.573l-2.483-105.932c-0.154-5.284,1.867-13.994,4.678-19.258l3.909-7.325
			C186.535,156.23,189.171,156.302,188.741,161.555"/>
	</defs>
	<use xlink:href="#SVGID_5_"  style="overflow:visible;fill:#FFFFFF;"/>
	<clipPath id="SVGID_6_">
		<use xlink:href="#SVGID_5_"  style="overflow:visible;"/>
	</clipPath>
	<g id="g2534" transform="matrix(1.25,0,0,-1.25,-577.43743,889.95394)" class="st3">
		<g id="g2540">
			<g id="g2542">
				<g id="g2548">
					<g id="g2550">
						<path id="path2558" class="st0" d="M601.927,586.979h11.368V468.803h-11.368V586.979z"/>
					</g>
				</g>
			</g>
		</g>
	</g>
</g>
<g>
	<defs>
		<path id="SVGID_7_" d="M208.111,187.953l-8.772,98.411c-0.882,6.925-1.908,14.097-3.96,13.994
			c-1.406-0.041-2.616-4.371-1.929-10.875l3.642-84.479c0.595-6.115,4.73-15.277,7.326-19.955
			C207.085,180.464,209.086,182.567,208.111,187.953"/>
	</defs>
	<use xlink:href="#SVGID_7_"  style="overflow:visible;fill:#FFFFFF;"/>
	<clipPath id="SVGID_8_">
		<use xlink:href="#SVGID_7_"  style="overflow:visible;"/>
	</clipPath>
	<g id="g2562" transform="matrix(1.25,0,0,-1.25,-577.43743,889.95394)" class="st4">
		<g id="g2568">
			<g id="g2570">
				<g id="g2576">
					<g id="g2578">
						<path id="path2586" class="st0" d="M616.16,567.592h13.059v-95.998H616.16V567.592z"/>
					</g>
				</g>
			</g>
		</g>
	</g>
</g>
<g>
	<defs>
		<path id="SVGID_9_" d="M211.456,279.378c-1.703-0.215-1.765-7.182-1.292-11.922l13.789-136.209
			c0.759-5.028,4.401-12.774,8.054-17.268l1.334-1.641c3.775-4.545,6.546-4.125,5.499,0.77L215.601,267.59
			C214.37,274.258,213.538,279.378,211.456,279.378"/>
	</defs>
	<use xlink:href="#SVGID_9_"  style="overflow:visible;fill:#FFFFFF;"/>
	<clipPath id="SVGID_10_">
		<use xlink:href="#SVGID_9_"  style="overflow:visible;"/>
	</clipPath>
	<g id="g2590" transform="matrix(1.25,0,0,-1.25,-577.43743,889.95394)" class="st5">
		<g id="g2596">
			<g id="g2598">
				<g id="g2604">
					<g id="g2606">
						<path id="path2614" class="st0" d="M629.703,625.728h24.164V488.461h-24.164V625.728z"/>
					</g>
				</g>
			</g>
		</g>
	</g>
</g>
<g>
	<defs>
		<path id="SVGID_11_" d="M252.556,135.659c3.027-3.447,8.075-1.498,6.987,3.406L229.39,276.659
			c-1.077,4.935-3.242,12.537-5.479,12.281c-1.847-0.154-1.734-7.367-0.38-13.225l21.689-124.441
			C246.288,146.268,249.458,139.045,252.556,135.659"/>
	</defs>
	<use xlink:href="#SVGID_11_"  style="overflow:visible;fill:#FFFFFF;"/>
	<clipPath id="SVGID_12_">
		<use xlink:href="#SVGID_11_"  style="overflow:visible;"/>
	</clipPath>
	<g id="g2618" transform="matrix(1.25,0,0,-1.25,-577.43743,889.95394)" class="st6">
		<g id="g2624">
			<g id="g2626">
				<g id="g2632">
					<g id="g2634">
						<path id="path2642" class="st0" d="M639.602,606.193h30.853V480.606h-30.853V606.193z"/>
					</g>
				</g>
			</g>
		</g>
	</g>
</g>
<g>
	<defs>
		<path id="SVGID_13_" d="M255.655,275.079c-2.195,4.74-4.894,11.573-7.951,10.28c-2.196-0.893,2.247-11.635,2.247-11.635
			l74.783-182.429c2.421-5.325,7.757-12.116,13.584-9.285c5.212,2.514-0.39,12.804-2.442,17.421
			C290.518,201.414,277.601,227.73,255.655,275.079"/>
	</defs>
	<use xlink:href="#SVGID_13_"  style="overflow:visible;fill:#FFFFFF;"/>
	<clipPath id="SVGID_14_">
		<use xlink:href="#SVGID_13_"  style="overflow:visible;"/>
	</clipPath>
	<g id="g2646" transform="matrix(1.25,0,0,-1.25,-577.43743,889.95394)" class="st7">
		<g id="g2652">
			<g id="g2654">
				<g id="g2660">
					<g id="g2662">
						<path id="path2670" class="st0" d="M658.356,648.62h78.426V482.641h-78.426V648.62z"/>
					</g>
				</g>
			</g>
		</g>
	</g>
</g>
<g>
	<defs>
		<path id="SVGID_15_" d="M272.45,266.102c1.775,1.365,5.982-3.642,9.275-9.316L418.631,28.691
			c2.432-4.114,3.806-10.711-1.108-13.174c-3.827-1.908-10.455,1.826-13.594,7.377L276.667,252.641
			C272.932,259.566,270.726,264.707,272.45,266.102"/>
	</defs>
	<use xlink:href="#SVGID_15_"  style="overflow:visible;fill:#FFFFFF;"/>
	<clipPath id="SVGID_16_">
		<use xlink:href="#SVGID_15_"  style="overflow:visible;"/>
	</clipPath>
	<g id="g2674" transform="matrix(1.25,0,0,-1.25,-577.43743,889.95394)" class="st8">
		<g id="g2680">
			<g id="g2682">
				<g id="g2688">
					<g id="g2690">
						<path id="path2698" class="st0" d="M678.531,701.076h121.361V497.99H678.531V701.076z"/>
					</g>
				</g>
			</g>
		</g>
	</g>
</g>
<g>
	<defs>
		<path id="SVGID_17_" d="M275.621,290.674c-1.785-1.755,1.251-7.408,4.914-13.081L426.757,65.37
			c3.95-6.002,12.681-12.651,18.037-9.542c4.822,2.801,4.894,8.844,0.841,14.517l-159.611,211.28
			C282.053,287.319,277.478,292.552,275.621,290.674"/>
	</defs>
	<use xlink:href="#SVGID_17_"  style="overflow:visible;fill:#FFFFFF;"/>
	<clipPath id="SVGID_18_">
		<use xlink:href="#SVGID_17_"  style="overflow:visible;"/>
	</clipPath>
	<g id="g2702" transform="matrix(1.25,0,0,-1.25,-577.43743,889.95394)" class="st9">
		<g id="g2708">
			<g id="g2710">
				<g id="g2716">
					<g id="g2718">
						<path id="path2726" class="st0" d="M681.018,669.788h140.69V477.922h-140.69V669.788z"/>
					</g>
				</g>
			</g>
		</g>
	</g>
</g>
<g>
	<defs>
		<path id="SVGID_19_" d="M318.855,266.081c0,0-9.655,10.106-11.686,7.859c-2.083-2.195,1.867-6.433,6.135-11.88l4.781-5.766
			L522.429,21.909c3.273-4.032,7.808-4.217,12.117-1.026l6.176,7.602c3.365,3.837,3.139,10.486-0.585,14.21L318.855,266.081z"/>
	</defs>
	<use xlink:href="#SVGID_19_"  style="overflow:visible;fill:#FFFFFF;"/>
	<clipPath id="SVGID_20_">
		<use xlink:href="#SVGID_19_"  style="overflow:visible;"/>
	</clipPath>
	<g id="g2730" transform="matrix(1.25,0,0,-1.25,-577.43743,889.95394)" class="st10">
		<g id="g2736">
			<g id="g2738">
				<g id="g2744">
					<g id="g2746">
						<path id="path2754" class="st0" d="M706.019,697.809h191.209V491.014H706.019V697.809z"/>
					</g>
				</g>
			</g>
		</g>
	</g>
</g>
<g>
	<defs>
		<path id="SVGID_21_" d="M302.306,303.652c-1.58-1.58,1.97-6.31,8.444-12.024L527.713,92.25c3.909-4.001,9.347-3.889,12.845-0.503
			c4.555,4.34,6.104,8.372,6.833,12.219c1.221,6.29-2.298,9.091-6.741,13.081L314.679,296.973
			C309.108,301.867,304.153,305.366,302.306,303.652"/>
	</defs>
	<use xlink:href="#SVGID_21_"  style="overflow:visible;fill:#FFFFFF;"/>
	<clipPath id="SVGID_22_">
		<use xlink:href="#SVGID_21_"  style="overflow:visible;"/>
	</clipPath>
	<g id="g2758" transform="matrix(1.25,0,0,-1.25,-577.43743,889.95394)" class="st11">
		<g id="g2764">
			<g id="g2766">
				<g id="g2772">
					<g id="g2774">
						<path id="path2782" class="st0" d="M702.531,641.364h198.317V467.671H702.531V641.364z"/>
					</g>
				</g>
			</g>
		</g>
	</g>
</g>
<g>
	<defs>
		<path id="SVGID_23_" d="M347.285,285.821l252.421-180.408c4.812-3.796,9.223-2.924,10.444,1.836l5.859,20.222
			c1.334,4.986-2.206,11.686-7.336,15.308L351.625,291.721c-6.31,4.032-12.876,7.571-14.487,5.355
			C335.096,294.275,341.457,290.53,347.285,285.821"/>
	</defs>
	<use xlink:href="#SVGID_23_"  style="overflow:visible;fill:#FFFFFF;"/>
	<clipPath id="SVGID_24_">
		<use xlink:href="#SVGID_23_"  style="overflow:visible;"/>
	</clipPath>
	<g id="g2786" transform="matrix(1.25,0,0,-1.25,-577.43743,889.95394)" class="st12">
		<g id="g2792">
			<g id="g2794">
				<g id="g2800">
					<g id="g2802">
						<path id="path2810" class="st0" d="M730.027,630.669h225.805v-158.14H730.027V630.669z"/>
					</g>
				</g>
			</g>
		</g>
	</g>
</g>
<g>
	<defs>
		<path id="SVGID_25_" d="M320.394,323.68c-0.739-2.955,5.92-5.684,12.968-9.337L559.241,200.46
			c6.136-3.365,10.957-1.652,10.917,3.632l0.995,25.085c-0.082,5.479-5.869,12.23-12.876,15.051L335.63,321.689
			C327.843,324.736,321.082,326.491,320.394,323.68"/>
	</defs>
	<use xlink:href="#SVGID_25_"  style="overflow:visible;fill:#FFFFFF;"/>
	<clipPath id="SVGID_26_">
		<use xlink:href="#SVGID_25_"  style="overflow:visible;"/>
	</clipPath>
	<g id="g2814" transform="matrix(1.25,0,0,-1.25,-577.43743,889.95394)" class="st13">
		<g id="g2820">
			<g id="g2822">
				<g id="g2828">
					<g id="g2830">
						<path id="path2838" class="st0" d="M717.674,554.287H918.88V450.771H717.674V554.287z"/>
					</g>
				</g>
			</g>
		</g>
	</g>
</g>
<g>
	<defs>
		<path id="SVGID_27_" d="M585.117,302.093l-218.133,31.189c-8.546,1.334-14.815,2.688-15.472,0.185
			c-0.739-3.006,6.546-4.852,14.538-7.551l226.289-68.7c7.295-2.432,12.979,0.236,12.301,5.859l-3.221,25.896
			C600.763,294.952,593.489,300.893,585.117,302.093"/>
	</defs>
	<use xlink:href="#SVGID_27_"  style="overflow:visible;fill:#FFFFFF;"/>
	<clipPath id="SVGID_28_">
		<use xlink:href="#SVGID_27_"  style="overflow:visible;"/>
	</clipPath>
	<g id="g2842" transform="matrix(1.25,0,0,-1.25,-577.43743,889.95394)" class="st14">
		<g id="g2848">
			<g id="g2850">
				<g id="g2856">
					<g id="g2858">
						<path id="path2866" class="st0" d="M742.568,508.135h203.636v-64.949H742.568V508.135z"/>
					</g>
				</g>
			</g>
		</g>
	</g>
</g>
<g>
	<defs>
		<path id="SVGID_29_" d="M336.953,354.48c-0.606-3.212,10.239-5.028,18.632-5.9l192.914-22.623
			c8.618-0.882,15.677,3.724,12.886,11.193l-3.909,10.178c-2.298,6.504-9.429,11.039-18.355,10.444L354.2,357.834
			C346.095,357.947,337.548,357.701,336.953,354.48"/>
	</defs>
	<use xlink:href="#SVGID_29_"  style="overflow:visible;fill:#FFFFFF;"/>
	<clipPath id="SVGID_30_">
		<use xlink:href="#SVGID_29_"  style="overflow:visible;"/>
	</clipPath>
	<g id="g2870" transform="matrix(1.25,0,0,-1.25,-577.43743,889.95394)" class="st15">
		<g id="g2876">
			<g id="g2878">
				<g id="g2884">
					<g id="g2886">
						<path id="path2894" class="st0" d="M731.028,451.903h182.263v-26.634H731.028V451.903z"/>
					</g>
				</g>
			</g>
		</g>
	</g>
</g>
<g>
	<defs>
		<path id="SVGID_31_" d="M310.237,68.396c0,0-55.875,171.666-59.086,180.89c-3.437,9.911-6.761,18.704-9.685,17.955
			c-1.867-0.554-0.4-6.853,1.693-14.456l52.889-186.266c2.503-7.5,10.393-13.994,13.461-13.379
			C315.079,54.237,311.868,63.646,310.237,68.396"/>
	</defs>
	<use xlink:href="#SVGID_31_"  style="overflow:visible;fill:#FFFFFF;"/>
	<clipPath id="SVGID_32_">
		<use xlink:href="#SVGID_31_"  style="overflow:visible;"/>
	</clipPath>
	<g id="g2898" transform="matrix(1.25,0,0,-1.25,-577.43743,889.95394)" class="st16">
		<g id="g2904">
			<g id="g2906">
				<g id="g2912">
					<g id="g2914">
						<path id="path2922" class="st0" d="M653.629,669.944h60.385V497.572h-60.385V669.944z"/>
					</g>
				</g>
			</g>
		</g>
	</g>
</g>
</svg>
