<?xml version="1.0" encoding="utf-8"?>
<!-- Generator: Adobe Illustrator 19.2.1, SVG Export Plug-In . SVG Version: 6.00 Build 0)  -->
<svg version="1.1"
	 id="svg2404" inkscape:output_extension="org.inkscape.output.svg.inkscape" inkscape:version="0.45pre1" sodipodi:docbase="C:\Users\Steve\Desktop" sodipodi:docname="TD_Bank.svg" sodipodi:modified="true" sodipodi:version="0.32" xmlns:cc="http://web.resource.org/cc/" xmlns:dc="http://purl.org/dc/elements/1.1/" xmlns:inkscape="http://www.inkscape.org/namespaces/inkscape" xmlns:rdf="http://www.w3.org/1999/02/22-rdf-syntax-ns#" xmlns:sodipodi="http://sodipodi.sourceforge.net/DTD/sodipodi-0.dtd" xmlns:svg="http://www.w3.org/2000/svg"
	 xmlns="http://www.w3.org/2000/svg" xmlns:xlink="http://www.w3.org/1999/xlink" x="0px" y="0px" viewBox="0 0 168.394 51.089"
	 style="enable-background:new 0 0 168.394 51.089;" xml:space="preserve">
<style type="text/css">
	.st0{fill:currentcolor;}
</style>
<sodipodi:namedview  bordercolor="#666666" borderopacity="1.0" gridtolerance="10.0" guidetolerance="10.0" height="657.48px" id="base" inkscape:current-layer="svg2404" inkscape:cx="84.204628" inkscape:cy="25.54689" inkscape:pageopacity="0.0" inkscape:pageshadow="2" inkscape:window-height="848" inkscape:window-width="1440" inkscape:window-x="0" inkscape:window-y="14" inkscape:zoom="8.0458761" objecttolerance="10.0" pagecolor="#ffffff" width="669.05px">
	</sodipodi:namedview>
<path id="path2643" class="st0" d="M85.672,23.607h2.367c1.646,0,3.288,0.36,3.288,2.332c0,1.772-1.743,2.365-3.353,2.365h-2.302
	V23.607L85.672,23.607z M77.386,33.039h13.315c4.768,0,9.436-0.595,9.436-6.378c0-2.298-1.972-4.791-5.161-5.219v-0.068
	c3.056-0.787,4.733-2.466,4.733-5.616c0-4.37-3.91-5.647-7.887-5.647H77.386V33.039z M85.672,14.449h2.396
	c1.578,0,3.027,0.523,3.027,2.234c0,1.736-1.678,2.195-3.223,2.195h-2.201v-4.43H85.672z"/>
<path id="path2645" class="st0" d="M113.52,26.036c0,1.479-0.859,3.057-2.565,3.057c-1.286,0-1.94-0.463-1.94-1.643
	c0-1.77,1.973-1.937,3.681-1.937h0.826v0.523H113.52z M103.424,21.307c1.646-0.819,3.746-1.443,5.721-1.443
	c2.075,0,4.343,0.262,4.376,2.465c-0.757-0.069-2.071-0.232-3.226-0.232c-4.112,0-8.843,1.054-8.843,6.307
	c0,3.582,3.093,5.029,6.277,5.029c2.338,0,4.446-0.921,5.592-2.861h0.068v2.469h7.69V22.626c0-6.243-5.752-7.097-10.487-7.097
	c-3.219,0-4.702,0.295-7.166,0.985v4.794H103.424z"/>
<path id="path2647" class="st0" d="M123.413,15.925h7.829v2.953h0.066c0.984-2.397,3.252-3.35,5.589-3.35
	c4.402,0,6.012,2.3,6.012,5.614v11.895h-8.283v-9.857c0-0.986,0-2.332-1.444-2.332c-1.483,0-1.483,1.346-1.483,2.332v9.857h-8.285
	V15.925H123.413z"/>
<polygon id="polygon2649" class="st0" points="153.989,22.718 154.062,22.718 158.794,15.922 168.159,15.922 162.375,23.475
	168.394,33.039 158.729,33.039 154.062,24.727 153.989,24.727 153.989,33.039 145.707,33.039 145.707,8.401 153.989,8.401 "/>
<path id="path2651" class="st0" d="M0,51.089h60.754V0H0V51.089z M39.881,40.037H25.728V16.06h7.11v19.736h6.835
	c4.72,0,6.704-3.085,6.704-10.994c0-7.97-2.258-10.284-7.043-10.284H23.745v25.52h-7.043v-25.52H6.378v-4.246h35.141
	c8.479,0,12.513,4.113,12.513,14.466C54.031,38.365,48.014,40.037,39.881,40.037"/>
</svg>
