<?xml version="1.0" encoding="utf-8"?>
<!-- Generator: Adobe Illustrator 19.2.1, SVG Export Plug-In . SVG Version: 6.00 Build 0)  -->
<svg version="1.1" id="Layer_1" xmlns="http://www.w3.org/2000/svg" xmlns:xlink="http://www.w3.org/1999/xlink" x="0px" y="0px"
	 viewBox="0 0 62.83 65" style="enable-background:new 0 0 62.83 65;" xml:space="preserve">
<style type="text/css">
	.st0{fill:#29AAE2;}
</style>
<g id="Layer_1_1_">
	<g id="USAA">
		<path class="st0" d="M0.18,47.447v10.632C0.18,64.019,3.805,65,6.84,65c4.487,0,6.564-2.967,6.564-6.982V47.447h-2.97v10.929
			c0,1.382-0.451,3.96-3.594,3.909c-2.859-0.05-3.388-2.686-3.388-4.374V47.447H0.18z"/>
		<path class="st0" d="M25.806,48.146c0,0-1.895-0.947-4.048-0.947c-2.682,0-6.055,1.384-6.055,5.146
			c0,2.613,1.92,3.852,3.232,4.488c0.693,0.34,1.541,0.72,2.234,1.093c0.359,0.194,1.784,0.675,1.784,2.224
			c0,1.65-1.807,2.216-2.619,2.216c-2.895,0-4.865-1.32-4.865-1.32l0.303,3.316c0,0,1.182,0.602,4.724,0.605
			c3.377-0.009,5.813-2.179,5.813-5.17c0-2.302-1.569-3.667-2.908-4.317c-1.056-0.522-1.669-0.798-2.585-1.232
			c-0.917-0.43-1.863-1.179-1.863-2.338c0-1.24,1.132-2.129,2.805-2.129c2.458,0,3.448,1.11,4.048,1.462V48.146z"/>
		<path class="st0" d="M49.964,47.419H46.4l0.569,1.438l-5.532,14.779l-5.704-16.217h-3.564l0.568,1.438l-5.898,15.757h3.22l1.03-3
			h6.098l1.023,3h6.082l1.032-3h6.096l1.027,3h3.566L49.964,47.419z M31.894,59.286l2.367-6.735l2.108,6.735H31.894z M46.129,59.286
			l2.362-6.735l2.112,6.735H46.129z"/>
		<path class="st0" d="M0,28.108l0.15,5.373c0,0,1.318-0.975,2.79-0.975c1.479,0,3.142,1.062,3.142,1.062l13.202,7.726l1.116-4.856
			L6.082,28.061c0,0-1.657-1.056-3.142-1.056C1.459,27.005,0,28.108,0,28.108"/>
		<path class="st0" d="M0,21.083l0.15,5.373c0,0,1.318-0.974,2.79-0.974c1.479,0,3.142,1.061,3.142,1.061L20.708,35.1l1.114-4.855
			l-15.74-9.208c0,0-1.657-1.057-3.142-1.057C1.459,19.98,0,21.083,0,21.083"/>
		<path class="st0" d="M0,14.06l0.15,5.373c0,0,1.318-0.974,2.79-0.974c1.479,0,3.142,1.059,3.142,1.059l16.052,9.397l1.113-4.858
			L6.082,14.01c0,0-1.657-1.053-3.142-1.053C1.459,12.957,0,14.06,0,14.06"/>
		<path class="st0" d="M27.514,5.508l1.47,6.342l20.105,11.758c0,0,1.582,1.056,3.132,1.056c1.554,0,2.946-1.105,2.946-1.105
			l-0.15-5.372c0,0-1.263,0.975-2.796,0.975c-1.531,0-3.132-1.059-3.132-1.059L33.534,9L32.46,4.922c0-0.171,0.153-0.253,0.21-0.268
			l2.634-0.824c0.354,0,0.559,0.304,0.559,0.563l0.14,0.291c0.095,0.051,0.491-0.144,0.522-0.16V2.915
			c0.008-1.064-0.843-2.011-2.004-2.011h-2.63c0,0-0.384-0.904-1.503-0.904h-4.997c-1.32,0-1.639,1.246-1.639,1.246l-3.469,14.056
			L6.084,6.99c0,0-1.538-1.058-3.144-1.058C1.34,5.932,0,7.035,0,7.035l0.15,5.371c0,0,1.187-0.971,2.79-0.971
			c1.607,0,3.144,1.061,3.144,1.061l17.469,10.22L27.514,5.508z"/>
		<path class="st0" d="M29.379,13.59l1.467,6.368L49.09,30.63c0,0,1.632,1.061,3.132,1.061c1.499,0,2.946-1.109,2.946-1.109
			l-0.152-5.371c0,0-1.168,0.973-2.794,0.973c-1.629,0-3.132-1.056-3.132-1.056L29.379,13.59z"/>
		<path class="st0" d="M31.248,21.707l1.469,6.37l16.372,9.576c0,0,1.636,1.06,3.134,1.06c1.5,0,2.944-1.106,2.944-1.106
			l-0.148-5.372c0,0-1.171,0.971-2.796,0.971c-1.629,0-3.134-1.057-3.134-1.057L31.248,21.707z"/>
		<path class="st0" d="M33.121,29.831l1.469,6.361l14.497,8.486c0,0,1.638,1.063,3.136,1.063c1.499,0,2.944-1.113,2.944-1.113
			l-0.148-5.37c0,0-1.171,0.976-2.796,0.976c-1.629,0-3.136-1.064-3.136-1.064L33.121,29.831z"/>
	</g>
</g>
</svg>
