<?xml version="1.0" encoding="utf-8"?>
<!-- Generator: Adobe Illustrator 19.2.1, SVG Export Plug-In . SVG Version: 6.00 Build 0)  -->
<svg version="1.1" id="Layer_1" xmlns="http://www.w3.org/2000/svg" xmlns:xlink="http://www.w3.org/1999/xlink" x="0px" y="0px"
	 viewBox="0 0 621.724 129.023" style="enable-background:new 0 0 621.724 129.023;" xml:space="preserve">
<style type="text/css">
	.st0{fill:currentcolor;}
</style>
<path class="st0" d="M303.652,83.67v-4.29h0.582c3.338,0,4.796-0.314,4.796-3.58l-0.08-22.524c0-3.24-1.562-3.58-4.796-3.58h-2.438
	v-4.29h23.12v4.29l-2.756,0.08c-3.745,0-4.374,0.342-4.374,3.5v25.87h9.306c4.557,0,7.234-0.58,8.453-2.843
	c1.115-2.028,1.617-4.318,1.617-8.055h4.454v15.425h-37.884 M260.802,83.671v-4.29H263c3.316,0,4.774-0.314,4.774-3.58l-0.08-22.524
	c0-3.24-1.936-3.58-5.197-3.58h-2.016v-4.29h23.092v4.29l-2.757,0.08c-3.713,0-4.374,0.342-4.374,3.5v25.87h9.34
	c4.532,0,7.21-0.58,8.43-2.843c1.138-2.028,1.616-4.318,1.616-8.055h4.454v15.425H260.8L260.802,83.671z M215.352,83.671v-4.29
	l2.255-0.08c3.342,0,5.2-0.314,5.2-3.5V53.197c0-3.16-1.857-3.502-5.2-3.502h-2.255v-4.29h41.34v14.843h-4.375
	c-0.24-8.92-2.334-10.318-10.13-10.318h-10.712V61.3h2.757c4.88,0,5.517-1.63,5.916-7.395h4.402V73.3h-4.48
	c-0.32-6.576-0.957-7.476-5.757-7.476h-2.836v13.32h12.33c6.974,0,8.644-3.29,9.253-10.898h4.374V83.67L215.352,83.671
	L215.352,83.671z M216.997,49.695c-3.155,0-4.215,1.21-5.517,4.713L200.533,83.67h-6.896l-8.752-21.24l-8.35,21.24H169.4
	l-11.425-28.793c-1.303-3.314-3.235-5.183-6.075-5.183H151v-4.29h19.464v4.29h-1.884c-2.175,0-3.155,0.578-3.075,1.79
	c0,0.238-0.08,0.66,0.16,1.21c0,0,4.453,10.5,7.978,20.87c0.37,0.052,0.53,0.052,0.53,0.052l7.637-19.13
	c-0.32-3.16-1.378-4.792-4.693-4.792h-2.597v-4.29h20.496v4.29h-3.235c-1.935,0-2.676,0.422-2.676,1.554
	c0,0.474,0.08,1.052,0.32,1.606c0,0,4.612,11.13,7.978,20.82c0.45,0,0.45,0.023,0.45,0.023l7.398-19.37
	c0.478-1.29,0.478-2.262,0.478-2.923c0-1.21-1.06-1.71-3.235-1.71h-2.677v-4.29h18.64v4.29L216.997,49.695L216.997,49.695z
	 M380.728,72.485c0,8.764-6.892,11.92-17.098,11.92c-6.15,0-12.07-3.5-13.37-4.71l-1.298,4h-3.896V68.302h4.454
	c1.22,7.342,6.15,10.525,13.178,10.844c6.047,0.263,10.342-1.347,10.82-5.53c0.558-4.843-4.773-4.524-9.226-5.34l-6.58-1.212
	c-9.81-1.71-12.964-4.553-13.203-10.947c-0.264-6.976,6.07-11.525,14.587-11.605c4.135,0,9.49,0.657,13.624,3.976l1.937-3.163h3.394
	v13.37h-4.293c-0.932-7.42-8.246-9.68-14.5-9.526c-4.542,0.154-7.538,2.76-7.538,5.843c0,2.868,2.835,3.235,6.444,3.864l8.03,1.398
	c8.2,1.366,14.533,3.052,14.533,12.13L380.728,72.485 M441.867,60.223c0-2.948-0.478-5.553-1.538-7.66
	c-1.3-2.264-3.953-2.606-8.514-2.606h-9.573v11.45h3.024c4.852,0,5.597-0.893,5.597-6.817h3.553v19.133l-3.633-0.08
	c-0.08-6.398-0.745-7.712-5.517-7.712h-3.024v9.976c0,3.187,0.506,3.498,3.82,3.498h4.454v4.294h-23.6v-4.294l2.204-0.076
	c3.315,0,4.455-0.315,4.455-3.502V53.223c0-3.16-1.14-3.502-4.454-3.502h-2.202v-4.29h39.35v14.792h-4.4 M464.538,83.7v-4.295h4.135
	c2.203,0,3.263-0.235,3.263-1.55c0-0.474-0.267-1.13-0.586-1.844l-1.617-4.47h-14.927l-1.936,4.79
	c-0.32,0.736-0.478,1.29-0.478,1.788c0,1.21,1.036,1.287,3.075,1.287h3.98V83.7H439.48v-4.295h1.75c2.996,0,3.9-1.052,5.04-3.737
	l12.806-30.236h9.386l12.25,30.236c1.115,2.924,2.358,3.737,4.534,3.737h1.856V83.7H464.538 M462.443,52.328l-5.752,14.684h11.586
	L462.443,52.328L462.443,52.328z"/>
<path class="st0" d="M530.346,74.776c0,6.97-3.235,9.736-7.848,9.736c-5.274,0-8.692-1.446-8.93-6.736l-0.16-4.45
	c-0.24-6.418-2.287-7.708-8.913-7.708H500.6v10.29c0,3.187,0.477,3.498,3.815,3.498h3.474V83.7h-23.36v-4.294h3.393
	c2.203,0,4.004-0.79,4.004-3.577V53.223c0-3.16-0.502-3.502-3.816-3.502h-3.154v-4.29h26.326c9.84,0,14.373,2.924,14.373,9.083
	c0,5.52-4.294,8.92-11.608,9.89c6.812,1.634,7.713,4.052,8.11,9.24c0.08,0.5,0,1.553,0,2.365c0.16,2.263,1.06,3.318,2.2,3.24
	c2.334-0.156,2.518-1.87,2.334-6.423h3.658c0.08,0.657,0.08,1.32,0.08,1.948h-0.082 M516.827,55.564c0-4.45-2.597-5.763-8.033-5.763
	H500.6v11.605l8.353-0.08c5.356,0,7.874-1.71,7.874-5.68v-0.08V55.564z M564.447,57.694c-1.832-5.736-5.673-8.422-12.007-8.422
	c-6.238,0-11.194,5.107-11.114,14.843c0,9.896,3.976,15.24,11.114,15.317c5.195,0,9.808-2.577,9.808-6.976v-2.103
	c0-2.577-0.637-2.577-4.294-2.577h-1.912v-4.394h17.79v4.394h-1.457c-2.757,0-3.18-0.263-3.18,3V83.59h-3.13l-2.016-3.182
	c-3.5,2.765-8.51,4.05-12.996,4.05c-5.242,0-9.728-1.843-13.28-5.42c-3.738-3.817-5.913-8.92-5.833-14.924
	c0-5.92,1.937-10.628,5.754-14.42c3.314-3.264,8.35-5.104,13.552-5.028c4.294,0,9.306,1.13,12.142,4.135l1.96-3.975h3.05V57.67
	l-3.95,0.024 M599.47,84.408c-12.723,0-22.586-7.947-22.586-20.002c0-12,9.863-19.843,22.508-19.843
	c12.708,0,22.332,7.844,22.332,19.922c0,11.976-9.625,19.923-22.253,19.923 M612.339,64.565c0-10.05-5.49-15.293-13.027-15.293
	c-7.448,0-13.12,5.243-13.12,15.293c0,10.027,5.672,15.397,13.12,15.397c7.426,0,12.948-5.37,12.948-15.397h0.08H612.339z"/>
<path class="st0" d="M0,0v129.023h130V0H0z M119.198,59.973h-4.6c0-3.082-0.499-5.805-1.607-8.008
	c-1.358-2.365-4.13-2.723-8.898-2.723H94.088V61.21h3.16c5.07,0,5.85-0.933,5.85-7.125h3.713v20l-3.798-0.083
	c-0.083-6.688-0.777-8.062-5.767-8.062h-3.16v10.427c0,3.331,0.529,3.655,3.994,3.655h4.652v4.49H78.064v-4.488l2.304-0.08
	c3.465,0,4.655-0.33,4.655-3.66V52.657c0-3.3-1.19-3.66-4.648-3.66h-0.59c-3.298,0-4.406,1.265-5.766,4.925l-11.443,30.59h-7.208
	L46.22,62.31l-8.728,22.2h-7.458L18.09,54.412c-1.36-3.464-3.38-5.417-6.35-5.417H10.8V44.51h20.347v4.485h-1.97
	c-2.274,0-3.298,0.604-3.216,1.87c0,0.25-0.083,0.691,0.167,1.266c0,0,4.655,10.975,8.34,21.815C34.855,74,35.022,74,35.022,74
	l7.983-19.994c-0.333-3.303-1.441-5.01-4.905-5.01h-2.714v-4.485h21.42v4.485h-3.38c-2.023,0-2.798,0.443-2.798,1.623
	c0,0.496,0.084,1.1,0.334,1.68c0,0,4.82,11.633,8.34,21.76c0.472,0,0.472,0.025,0.472,0.025l7.73-20.245
	c0.5-1.349,0.5-2.366,0.5-3.056c0-1.266-1.106-1.786-3.38-1.786h-2.798v-4.485l0.002,0.001h57.37V59.973z"/>
</svg>
