<?xml version="1.0" encoding="utf-8"?>
<!-- Generator: Adobe Illustrator 19.2.1, SVG Export Plug-In . SVG Version: 6.00 Build 0)  -->
<svg version="1.1" id="Layer_1" xmlns="http://www.w3.org/2000/svg" xmlns:xlink="http://www.w3.org/1999/xlink" x="0px" y="0px"
	 viewBox="0 0 112 84" style="enable-background:new 0 0 112 84;" xml:space="preserve">
<style type="text/css">
	.st0{fill:#29AAE2;}
	.st1{fill:#1D87AD;}
	.st2{fill:#FFFFFF;}
</style>
<path class="st0" d="M100,84H12C5.4,84,0,78.6,0,72V12C0,5.4,5.4,0,12,0h88c6.6,0,12,5.4,12,12v60C112,78.6,106.6,84,100,84z"/>
<g>
	<polyline class="st1" points="13.881,60 45.916,28 69.942,52 101.978,20 	"/>
	<path class="st2" d="M13.881,60c1.03-1.639,2.098-3.239,3.188-4.818c1.091-1.578,2.201-3.135,3.336-4.669
		c2.251-3.086,4.59-6.083,6.95-9.06c1.199-1.47,2.378-2.958,3.592-4.412c1.22-1.448,2.42-2.916,3.656-4.349l3.714-4.29l3.774-4.231
		l3.371-3.779l4.279,3.779c1.063,0.938,2.102,1.9,3.154,2.849c1.052,0.949,2.1,1.902,3.123,2.88
		c2.064,1.938,4.123,3.881,6.141,5.866c2.015,1.987,4.02,3.985,5.989,6.018c1.98,2.022,3.9,4.104,5.849,6.158h-8.107l4.197-3.807
		l4.269-3.735l4.344-3.66c1.479-1.189,2.938-2.398,4.434-3.57c1.5-1.168,2.99-2.346,4.524-3.48c1.514-1.154,3.071-2.265,4.623-3.381
		c1.565-1.103,3.145-2.191,4.755-3.249c0.81-0.523,1.613-1.055,2.445-1.556c0.828-0.506,1.643-1.025,2.498-1.503
		c-0.48,0.855-0.999,1.669-1.506,2.497c-0.502,0.832-1.035,1.634-1.559,2.444c-1.06,1.609-2.15,3.187-3.254,4.751
		c-1.118,1.551-2.231,3.106-3.386,4.619c-1.136,1.533-2.315,3.022-3.485,4.52c-1.174,1.494-2.384,2.952-3.575,4.43l-3.665,4.34
		l-3.74,4.265l-3.811,4.193l-3.751,4.126l-4.357-4.126c-2.056-1.947-4.14-3.864-6.164-5.842c-2.035-1.967-4.035-3.97-6.024-5.982
		c-1.987-2.015-3.932-4.072-5.873-6.134c-0.98-1.022-1.933-2.069-2.884-3.12c-0.95-1.051-1.913-2.089-2.853-3.151l7.65,0
		l-4.235,3.769l-4.295,3.71c-1.434,1.234-2.903,2.433-4.353,3.651c-1.455,1.213-2.945,2.391-4.416,3.588
		c-2.98,2.356-5.98,4.692-9.068,6.94c-1.535,1.133-3.094,2.242-4.673,3.331C17.122,57.906,15.52,58.972,13.881,60z"/>
</g>
</svg>
